<?xml version="1.0" encoding="UTF-8" standalone="no"?>
<!-- Created with Inkscape (http://www.inkscape.org/) -->

<svg
   xmlns:pcbmode="pcbmode"
   xmlns:dc="http://purl.org/dc/elements/1.1/"
   xmlns:cc="http://creativecommons.org/ns#"
   xmlns:rdf="http://www.w3.org/1999/02/22-rdf-syntax-ns#"
   xmlns:svg="http://www.w3.org/2000/svg"
   xmlns="http://www.w3.org/2000/svg"
   xmlns:sodipodi="http://sodipodi.sourceforge.net/DTD/sodipodi-0.dtd"
   xmlns:inkscape="http://www.inkscape.org/namespaces/inkscape"
   width="210mm"
   height="297mm"
   viewBox="0 0 744.09448 1052.3621"
   id="svg2"
   version="1.1"
   inkscape:version="0.91 r13725"
   sodipodi:docname="card-cover.svg"
   inkscape:export-filename="/home/saar/proj/boards/tap/docs/schematics.png"
   inkscape:export-xdpi="90.014938"
   inkscape:export-ydpi="90.014938">
  <defs
     id="defs4" />
  <sodipodi:namedview
     id="base"
     pagecolor="#ffffff"
     bordercolor="#666666"
     borderopacity="1.0"
     inkscape:pageopacity="0.0"
     inkscape:pageshadow="2"
     inkscape:zoom="1.4"
     inkscape:cx="557.01907"
     inkscape:cy="856.09991"
     inkscape:document-units="px"
     inkscape:current-layer="layer1"
     showgrid="false"
     inkscape:window-width="1885"
     inkscape:window-height="1056"
     inkscape:window-x="35"
     inkscape:window-y="24"
     inkscape:window-maximized="1"
     showguides="false"
     fit-margin-left="10"
     fit-margin-top="10"
     fit-margin-right="10"
     fit-margin-bottom="10"
     inkscape:snap-global="false">
    <sodipodi:guide
       position="287.41237,1192.6197"
       orientation="1,0"
       id="guide5095" />
  </sodipodi:namedview>
  <metadata
     id="metadata7">
    <rdf:RDF>
      <cc:Work
         rdf:about="">
        <dc:format>image/svg+xml</dc:format>
        <dc:type
           rdf:resource="http://purl.org/dc/dcmitype/StillImage" />
        <dc:title></dc:title>
      </cc:Work>
    </rdf:RDF>
  </metadata>
  <g
     inkscape:label="Layer 1"
     inkscape:groupmode="layer"
     id="layer1"
     transform="translate(88.412337,322.60886)">
    <rect
       style="opacity:1;fill:#e7e7e7;fill-opacity:0.66666667;stroke:none;stroke-width:3.671;stroke-linecap:round;stroke-linejoin:round;stroke-miterlimit:4;stroke-dasharray:none;stroke-dashoffset:0;stroke-opacity:1"
       id="rect5450"
       width="350.78741"
       height="288.77954"
       x="352.20279"
       y="-1262.8833"
       ry="0" />
    <rect
       ry="0"
       y="-1206.1904"
       x="352.20279"
       height="175.39371"
       width="350.78741"
       id="rect5452"
       style="opacity:1;fill:#e7e7e7;fill-opacity:0.66666667;stroke:none;stroke-width:3.671;stroke-linecap:round;stroke-linejoin:round;stroke-miterlimit:4;stroke-dasharray:none;stroke-dashoffset:0;stroke-opacity:1" />
    <g
       id="g5475"
       transform="translate(0,5.3994188)">
      <text
         xml:space="preserve"
         style="font-style:normal;font-variant:normal;font-weight:500;font-stretch:normal;font-size:20.88926697px;line-height:100%;font-family:'Alegreya Sans';-inkscape-font-specification:'Alegreya Sans, Medium';text-align:center;letter-spacing:0px;word-spacing:0px;writing-mode:lr-tb;text-anchor:middle;fill:#000000;fill-opacity:1;stroke:none;stroke-width:1px;stroke-linecap:butt;stroke-linejoin:miter;stroke-opacity:1"
         x="592.98279"
         y="-1054.9131"
         id="text5393"
         sodipodi:linespacing="100%"><tspan
           sodipodi:role="line"
           x="592.98279"
           y="-1054.9131"
           id="tspan5397">http://boldport.com/tap</tspan></text>
      <text
         sodipodi:linespacing="100%"
         id="text5905"
         y="-1097.5222"
         x="592.92822"
         style="font-style:normal;font-variant:normal;font-weight:normal;font-stretch:normal;font-size:15.43272018px;line-height:100%;font-family:'Alegreya Sans';-inkscape-font-specification:'Alegreya Sans, Normal';text-align:center;letter-spacing:0px;word-spacing:0px;writing-mode:lr-tb;text-anchor:middle;fill:#000000;fill-opacity:1;stroke:none;stroke-width:1px;stroke-linecap:butt;stroke-linejoin:miter;stroke-opacity:1"
         xml:space="preserve"><tspan
           id="tspan5907"
           y="-1097.5222"
           x="592.92822"
           sodipodi:role="line">Elektor, December 1974</tspan><tspan
           id="tspan5909"
           y="-1082.0895"
           x="592.92822"
           sodipodi:role="line">Boldport, July 2016</tspan></text>
      <g
         transform="matrix(0,0.73295046,0.73295046,0,176.53137,-2632.6491)"
         id="g5899">
        <path
           inkscape:connector-curvature="0"
           d="m 1959.0847,534.92783 c -0.048,-5.41248 3.5234,-8.76713 9.3177,-8.76713 l 2.0424,0 0.7393,-1.34393 c 1.4839,-2.69976 3.671,-4.0929 6.4816,-4.12666 3.1477,-0.0383 5.4558,1.30595 6.8495,3.98706 0.3424,0.66192 0.7422,1.27636 0.8859,1.36445 0.1447,0.088 4.5901,0.21281 9.881,0.27928 5.2908,0.066 10.3078,0.18843 11.1498,0.27021 4.4778,0.43519 7.5464,3.77521 7.5286,8.19942 0,3.34519 -1.7526,6.01047 -4.8313,7.40829 -1.4323,0.65021 -1.8312,0.69071 -7.3622,0.73901 -6.1256,0.0526 -7.1369,0.30703 -3.831,0.9623 3.8088,0.75456 7.7812,2.83352 10.8479,5.67723 2.6842,2.48934 4.8785,6.88544 5.4529,10.92636 0.048,0.30033 0.058,1.50882 0.048,2.68599 -0.087,4.60991 -1.9324,8.45566 -5.07,10.55777 -4.1411,2.77437 -9.9683,1.26278 -11.9103,-3.0899 -0.3762,-0.83982 -0.667,-2.31469 -0.8049,-4.05784 -0.3038,-3.85221 -1.1796,-5.44252 -3.3937,-6.17794 -2.9596,-0.98301 -5.8392,0.50922 -6.7463,3.49754 -1.1097,3.65723 1.6971,6.07747 7.0482,6.07747 l 2.2247,0 0.5874,1.14479 c 1.3233,2.57236 3.8663,4.57773 6.3952,5.04625 2.4393,0.45193 4.7961,-0.043 7.1813,-1.50035 1.1656,-0.71319 2.283,-1.29544 2.4856,-1.29544 0.2025,0 0.6337,0.47584 0.9587,1.05905 1.7921,3.21247 1.2631,7.33397 -1.2707,9.897 -2.4321,2.46075 -3.9507,2.72612 -14.3294,2.5036 -4.3138,-0.0933 -10.2186,-0.18412 -13.1208,-0.20086 -8.0851,-0.0507 -9.9123,-0.54241 -12.152,-3.2723 -2.5328,-3.08723 -2.3225,-8.35017 0.4389,-10.95988 0.4832,-0.45671 0.8787,-0.98535 0.8787,-1.17449 0,-0.18938 -0.5131,-1.40643 -1.1396,-2.70459 -1.4096,-2.92147 -1.7159,-4.44617 -1.5842,-7.87552 0.1061,-2.7165 0.4533,-3.92987 1.9165,-6.64518 0.6279,-1.1665 2.4826,-3.60433 2.8699,-3.77114 0.5763,-0.2482 0.1013,-0.92079 -0.993,-1.4017 -1.5784,-0.69477 -3.085,-2.37958 -3.9246,-4.38916 l -0.6723,-1.61016 -1.3025,-0.01 c -1.7082,-0.0144 -4.4797,-0.61798 -5.6873,-1.2414 -1.5023,-0.77526 -3.4086,-2.88833 -3.7544,-4.16205 -0.1688,-0.62208 -0.3135,-1.75018 -0.3183,-2.50546 z m 25.9938,8.98679 c 4e-4,0.32663 0.6009,0.3099 2.1788,0.043 3.4756,-0.58784 3.5388,-1.21853 0.1061,-1.05536 -1.3137,0.0627 -1.877,0.2152 -2.1002,0.56766 -0.1206,0.18842 -0.1833,0.3362 -0.1833,0.44476 z"
           style="fill:#000000;fill-opacity:1;stroke:none;stroke-opacity:0.6"
           pcbmode:style="fill"
           pcbmode:gerber-lp="dc"
           pcbmode:id="41a729dbe"
           id="path478" />
        <path
           inkscape:connector-curvature="0"
           d="m 2040.2884,664.17404 c -0.9862,-4.42279 -5.0063,-7.01332 -9.6784,-6.23658 -5.1655,0.85876 -8.0649,6.10463 -6.1619,11.14878 0.6492,1.72015 2.2999,3.42505 4.2912,4.43264 1.7105,0.8654 5.586,0.71409 7.2647,-0.28359 2.4089,-1.43121 3.5485,-2.93587 4.2463,-5.60722 0.246,-0.93351 0.4292,-1.74263 0.4147,-1.79796 0,-0.056 -0.1832,-0.80047 -0.3761,-1.65603 z"
           style="fill:#000000;fill-opacity:1;stroke:none;stroke-opacity:0.6"
           pcbmode:style="fill"
           pcbmode:id="cb6507656"
           id="path688" />
        <path
           inkscape:connector-curvature="0"
           d="m 2021.176,481.07234 c 0,-1.8455 0.1254,-3.67326 0.381,-4.68515 1.3985,-5.57168 5.2981,-9.5906 10.1867,-10.49819 2.8039,-0.52055 6.852,0.0933 7.9795,1.21175 0.3424,0.3405 0.3713,0.66086 0.135,1.67146 -0.5608,2.4135 -0.381,4.76683 0.5069,6.62466 1.2191,2.55156 3.9053,4.66654 5.9279,4.66654 0.4726,0 0.9211,0.34337 1.4622,1.11868 0.7003,1.00333 2.1152,1.99169 2.8531,1.99169 0.6708,0 1.779,-1.20581 1.7698,-1.92837 0,-1.51303 -1.2138,-2.31407 -3.4669,-2.31742 -4.1744,-0.01 -7.1162,-2.18848 -7.7952,-5.77589 -0.8406,-4.43962 1.4771,-8.0595 5.9915,-9.36091 4.2063,-1.2126 9.5107,0.7151 12.8276,4.66276 4.3278,5.15017 5.6159,15.42575 2.6693,21.29987 -1.5215,3.03347 -3.8059,5.2945 -6.6768,6.60979 -1.1632,0.53308 -2.1138,1.0609 -2.1133,1.17257 0,0.11191 0.6718,0.64868 1.494,1.19314 3.4106,2.25797 6.7719,6.61883 8.0451,10.43865 0.7282,2.18414 1.3624,6.54771 1.1767,8.08585 -0.058,0.46676 -0.1881,1.73861 -0.2942,2.8275 -0.6288,6.43681 -5.0893,12.92809 -10.0213,14.58765 -1.7583,0.59143 -1.781,0.82643 -0.077,0.82643 4.7681,0 7.585,1.4971 9.3009,4.94759 2.2883,4.60308 -0.7422,10.48217 -5.9053,11.45308 -0.8329,0.15782 -5.0589,0.28503 -9.391,0.28503 -4.3326,0 -8.306,0.12051 -8.8297,0.26972 -2.2454,0.63868 -3.0807,3.17422 -1.6348,4.96247 l 0.6848,0.84695 9.2241,0.004 c 9.2787,0.004 11.0722,0.1339 12.6458,0.90845 1.5437,0.76048 3.2389,2.64204 3.752,4.16205 1.6112,4.77433 -0.8772,9.60567 -5.6781,11.02315 -0.8083,0.23863 -0.559,0.80979 0.7735,1.78131 1.5076,1.09927 3.6599,3.8117 4.4165,5.56184 0.6328,1.46358 1.5886,4.64234 1.8471,6.14633 0.096,0.56254 0.1832,2.34415 0.1929,3.95918 0.048,6.53748 -2.7397,11.61625 -7.7017,14.11674 -0.9558,0.48158 -1.7361,0.96741 -1.7361,1.07774 0,0.10999 0.7779,0.76149 1.7289,1.44813 2.7026,1.95176 4.8838,4.45062 6.089,6.97277 1.4882,3.11453 1.5061,3.1623 1.847,5.05735 0.1688,0.93336 0.3666,1.95242 0.4389,2.26347 0.072,0.31133 0.092,2.02894 0.048,3.81767 -0.1977,7.19605 -3.2967,12.86339 -9.0795,16.60172 -1.059,0.68445 -1.9242,1.36545 -1.9242,1.51342 0,0.14729 0.4823,0.27163 1.0702,0.27354 2.4908,0.01 5.9727,1.31835 7.2493,2.7232 0.2604,0.28837 0.8077,1.17836 1.2124,1.97868 1.0879,2.15267 1.0508,5.15219 -0.092,7.39155 -0.8844,1.73594 -1.2765,2.15367 -2.9769,3.16437 -1.8982,1.12839 -4.5188,1.42188 -12.6699,1.42207 l -7.4866,0.002 -1.9503,-1.97678 c -2.6895,-2.72573 -3.9362,-3.25824 -7.6004,-3.2481 -3.0237,0.01 -3.6242,0.20564 -6.1117,1.98978 -0.5382,0.38641 -1.1164,0.66288 -1.2837,0.61424 -0.1688,-0.0493 -0.6897,-0.84676 -1.1599,-1.7739 -0.7127,-1.40409 -0.854,-2.01795 -0.8449,-3.66689 0.048,-4.82192 3.1868,-7.83052 8.6681,-8.24969 1.3788,-0.10521 2.2999,-0.30081 2.2995,-0.4877 0,-0.17121 -0.6082,-0.68665 -1.3533,-1.14465 -2.3466,-1.44374 -5.2252,-4.56071 -6.7743,-7.33388 -1.6189,-2.89827 -2.1764,-5.1133 -2.3461,-9.3181 -0.164,-4.00027 -0.048,-5.01474 1.0923,-8.95886 1.0238,-3.56972 4.28,-7.74884 7.8815,-10.12039 0.8353,-0.54987 1.4724,-1.13939 1.4155,-1.30849 -0.058,-0.1693 -0.6964,-0.39072 -1.4188,-0.4933 -1.6238,-0.23003 -2.8227,-0.87641 -4.4807,-2.41607 -1.2606,-1.17057 -1.2746,-1.20362 -0.9009,-2.12197 1.7,-4.18008 1.7516,-4.61785 0.9101,-7.83085 -0.5735,-2.19121 -1.5447,-3.50118 -3.643,-4.9178 -0.722,-0.48732 -0.9303,-0.82945 -0.9313,-1.52996 0,-1.22853 1.3171,-4.77476 2.3125,-6.21333 2.6061,-3.76541 7.7966,-6.17053 11.7579,-5.45017 2.0949,0.38115 4.1233,1.12552 4.3003,1.58032 0.072,0.18029 -0.053,1.00825 -0.2797,1.83904 -0.7996,2.97948 -0.2894,5.48049 1.6334,8.03004 0.9973,1.32106 3.465,2.78809 5.2479,3.11969 0.5744,0.10665 1.0239,0.38737 1.1247,0.70171 0.27,0.8503 1.8166,1.9619 2.7252,1.9619 1.7154,0 2.6317,-2.17787 1.4212,-3.37842 -0.5681,-0.56307 -1.1839,-0.7117 -4.1242,-0.99773 -2.0675,-0.20134 -3.2558,-0.73949 -4.6982,-2.12756 -1.4709,-1.41547 -2.1692,-3.46345 -1.9146,-5.61397 0.1881,-1.59758 1.3123,-4.26788 2.0496,-4.87495 0.2219,-0.18125 0.4003,-0.50582 0.4003,-0.72222 0,-0.32568 -1.0344,-0.38546 -5.9188,-0.35198 -3.5865,0.0239 -6.4786,-0.088 -7.3428,-0.28503 -4.079,-0.92805 -7.1452,-3.23098 -8.8148,-6.62092 -1.2524,-2.54348 -1.5914,-3.82906 -1.5933,-6.04768 0,-2.57876 0.706,-5.4713 1.9951,-8.14916 0.6279,-1.30428 1.1415,-2.442 1.1415,-2.52774 0,-0.0866 -0.4678,-0.76001 -1.0403,-1.50031 -2.5911,-3.35384 -2.8549,-6.76483 -0.7769,-10.02919 1.6064,-2.52373 3.6985,-3.57608 7.5908,-3.81586 1.5292,-0.0947 2.7816,-0.27164 2.7816,-0.39263 0,-0.12195 -0.5618,-0.49765 -1.248,-0.83757 -0.6868,-0.34003 -2.1157,-1.30448 -3.1762,-2.14248 -3.3478,-2.64582 -5.3386,-5.81473 -6.5978,-10.50565 -0.679,-2.53028 -0.7258,-3.07915 -0.6062,-7.13097 0.1109,-3.84981 0.2219,-4.64807 0.8932,-6.50371 0.4195,-1.16363 1.0826,-2.59254 1.4718,-3.17551 0.3906,-0.5831 0.7075,-1.19381 0.7075,-1.35698 0,-0.41032 4.7584,-5.07217 6.061,-5.93782 0.5855,-0.3888 1.0653,-0.7976 1.0663,-0.90845 0,-0.10999 -0.5445,-0.34528 -1.211,-0.52122 -1.8649,-0.49163 -3.8243,-1.6554 -5.1037,-3.03223 -1.3301,-1.43087 -3.1091,-5.06902 -3.6941,-7.55726 -0.2556,-1.08042 -0.381,-2.94385 -0.381,-4.78935 z m 13.7854,1.66587 c -0.096,0.81471 0.3327,2.03071 1.2895,3.63528 1.8842,3.16092 2.0593,5.51764 0.5705,7.69312 -0.3954,0.57833 -0.6635,1.10467 -0.597,1.17076 0.067,0.066 0.9394,-0.01 1.9392,-0.17121 0.9997,-0.16116 2.3553,-0.29507 3.0126,-0.29602 0.6574,-0.001 1.2539,-0.0985 1.3253,-0.21377 0.072,-0.11717 -0.3714,-1.03571 -0.9877,-2.04196 -1.0908,-1.78576 -1.7959,-3.78391 -2.5434,-7.22029 -0.679,-3.12219 -1.7332,-4.28018 -3.2678,-3.58693 -0.4389,0.19799 -0.6838,0.54241 -0.7412,1.0313 z m 0.5309,32.91306 c 0.048,2.24439 2.2898,3.52409 3.3599,1.90417 0.4244,-0.64121 0.5021,-2.71157 0.1833,-4.89915 -0.1157,-0.81237 -0.9476,-0.83269 -2.215,-0.056 -1.075,0.65881 -1.3542,1.29902 -1.3291,3.05083 z m 0.8054,77.86742 c 0.048,0.47249 0.1881,0.93049 0.4148,1.2248 0.3182,0.41701 1.4361,2.39221 2.0346,3.59247 0.8502,1.70452 0.5589,4.1391 -0.6568,5.47624 -0.6106,0.67119 -0.6945,1.26257 -0.1736,1.23221 0.1977,-0.01 1.5649,-0.23434 3.0425,-0.49512 1.4777,-0.26063 2.7272,-0.60003 2.7783,-0.75575 0.053,-0.1559 -0.1688,-0.66512 -0.4847,-1.13178 -1.2124,-1.78189 -2.0631,-4.12652 -2.5791,-7.11049 -0.1832,-1.06636 -0.5131,-2.28762 -0.7316,-2.71392 -0.8883,-1.73211 -2.8101,-2.08141 -3.4766,-0.63103 -0.1639,0.3515 -0.2122,0.83983 -0.1639,1.31222 z m 2.1866,32.11077 c -0.048,1.80428 0.7378,3.61429 2.4383,4.66281 0.842,0.51922 1.4622,0.65154 3.0749,0.65154 1.7356,0 2.1798,-0.10999 3.1438,-0.77253 0.6173,-0.42419 1.3595,-1.17043 1.6503,-1.65841 0.7952,-1.33532 0.9013,-4.07593 0.2122,-5.53209 -1.0132,-2.14114 -3.9979,-3.33825 -6.5939,-2.64501 -2.4871,0.66408 -3.8769,2.97403 -3.9251,5.29379 z m 3.6584,-98.28681 c 0,0.31133 0.048,0.66761 0.067,1.11686 0.1206,1.43422 0.4003,2.39403 1.0359,3.55895 1.059,1.93847 1.0716,2.20044 0.1398,2.80512 -1.1091,0.72084 -0.3954,0.94962 2.87,0.91586 1.5688,-0.0143 3.2369,-0.11717 3.7071,-0.22333 l 0.856,-0.19177 -1.141,-0.22525 c -2.6115,-0.51238 -4.8641,-2.73884 -5.7066,-5.63998 -0.7976,-2.74739 -0.164,-4.31107 3.4708,-8.58656 1.7125,-2.01311 2.2498,-3.43944 1.9768,-5.2473 -0.217,-1.42322 -1.5297,-2.95117 -2.2902,-2.66174 -0.3666,0.13916 -0.4437,0.7403 -0.4437,3.44915 l 0,3.2779 -1.4154,1.48357 c -0.7784,0.81605 -1.822,2.34711 -2.3202,3.40262 -0.6211,1.31662 -0.8126,1.83263 -0.8054,2.76599 z"
           style="fill:#000000;fill-opacity:1;stroke:none;stroke-opacity:0.6"
           pcbmode:style="fill"
           pcbmode:gerber-lp="dccccc"
           pcbmode:id="7b50d28fc"
           id="path780" />
        <path
           inkscape:connector-curvature="0"
           d="m 2026.6771,594.07559 c -0.4629,-1.59797 -1.8576,-3.51338 -3.274,-4.49873 -2.2363,-1.55593 -3.3951,-1.63742 -27.198,-1.91627 -8.2345,-0.0966 -15.0363,-0.18986 -15.1154,-0.20756 -0.6621,-0.1492 -3.8118,0.54748 -4.8448,1.07043 -4.6716,2.36447 -5.8474,8.569 -2.4315,12.82933 0.5454,0.67986 0.9481,1.31614 0.8946,1.41409 -0.053,0.098 -0.6236,1.0687 -1.2674,2.15759 -1.646,2.78297 -2.1639,4.98896 -1.958,8.34304 0.2797,4.58729 1.5693,7.30652 5.1761,10.93147 2.1186,2.12899 3.0059,2.79717 4.9996,3.7643 4.1951,2.03469 5.9964,2.41522 11.4078,2.40967 3.6589,-0.003 5.1182,-0.1186 6.5597,-0.51716 2.6143,-0.72256 5.5493,-2.14626 7.6129,-3.69286 1.8514,-1.38797 4.5588,-4.70475 5.2161,-6.39075 0.2122,-0.54442 0.489,-1.12581 0.6149,-1.29204 0.1254,-0.16595 0.489,-1.3753 0.8059,-2.68676 1.3185,-5.45409 0.2893,-10.08447 -2.9852,-13.42224 -4.0409,-4.11954 -10.6111,-3.44322 -12.9274,1.33073 -0.328,0.67239 -0.8001,2.61363 -1.0528,4.31393 -0.4774,3.19923 -0.844,4.24546 -1.7467,4.96945 -1.1001,0.88182 -1.8529,1.13059 -3.4226,1.13059 -2.1668,0 -3.9285,-0.994 -4.6833,-2.64318 -0.6553,-1.43035 -0.6819,-2.28963 -0.1205,-3.86479 0.8087,-2.27327 2.5188,-3.10774 6.3687,-3.10774 l 2.311,0 0.9621,-1.48472 c 2.2907,-3.53475 4.9065,-4.92435 8.7747,-4.66137 3.4486,0.23433 6.1835,1.94636 8.7081,5.45113 l 0.6024,0.83642 2.9133,-0.0612 c 2.4137,-0.0493 3.166,-0.17838 4.3885,-0.75001 1.4801,-0.69219 2.9819,-1.93665 3.7617,-3.11697 1.0985,-1.66301 1.5273,-4.65392 0.951,-6.63906 z"
           style="fill:#000000;fill-opacity:1;stroke:none;stroke-opacity:0.6"
           pcbmode:style="fill"
           pcbmode:id="40644e008"
           id="path848" />
      </g>
    </g>
    <g
       id="g5487"
       transform="translate(0,1.1560502)">
      <rect
         transform="matrix(0,1,-1,0,0,0)"
         ry="4.7806015"
         y="-470.9379"
         x="-1178.5537"
         height="102.51735"
         width="35.994804"
         id="rect4545"
         style="opacity:1;fill:#cccccc;fill-opacity:1;stroke:#cccccc;stroke-width:1.88888359;stroke-linecap:round;stroke-linejoin:round;stroke-miterlimit:4;stroke-dasharray:none;stroke-opacity:1" />
      <rect
         transform="matrix(0,1,-1,0,0,0)"
         style="opacity:0.95;fill:#cccccc;fill-opacity:1;stroke:#000000;stroke-width:1.88890874;stroke-linecap:round;stroke-linejoin:round;stroke-miterlimit:4;stroke-dasharray:none;stroke-opacity:1"
         id="rect4549"
         width="35.994804"
         height="102.51735"
         x="-1118.9042"
         y="-470.9379"
         ry="4.7806015" />
      <g
         transform="translate(142.52242,-4)"
         style="fill:#000000"
         id="g5469">
        <circle
           style="opacity:1;fill:#000000;fill-opacity:1;stroke:none;stroke-width:1.77165353;stroke-linecap:round;stroke-linejoin:round;stroke-miterlimit:4;stroke-dasharray:none;stroke-opacity:1"
           id="path4529"
           cx="-1096.9069"
           cy="-238.75999"
           r="6.8694897"
           transform="matrix(0,1,-1,0,0,0)" />
        <circle
           r="6.8694897"
           cy="-315.55362"
           cx="-1096.9069"
           id="circle4531"
           style="opacity:1;fill:#000000;fill-opacity:1;stroke:none;stroke-width:1.77165353;stroke-linecap:round;stroke-linejoin:round;stroke-miterlimit:4;stroke-dasharray:none;stroke-opacity:1"
           transform="matrix(0,1,-1,0,0,0)" />
      </g>
      <path
         style="fill:#000000;fill-opacity:1;fill-rule:evenodd;stroke:#000000;stroke-width:0.84981662;stroke-linecap:round;stroke-linejoin:round;stroke-miterlimit:4;stroke-dasharray:none;stroke-opacity:1"
         d="m 459.24979,-1160.5562 c 0,-0.3179 -0.0651,-0.6351 -0.19712,-0.9199 -0.26414,-0.5696 -0.75306,-0.9208 -1.28537,-0.9206 l -12.96934,0 c -0.92648,-3.4228 -4.39718,-6.0669 -8.71696,-6.56 l 10e-4,16.8062 c 4.31931,-0.4934 7.78952,-3.1366 8.71596,-6.5591 l 12.96934,0 c 0.53231,3e-4 1.02123,-0.3511 1.28537,-0.9207 0.13206,-0.2848 0.19712,-0.6028 0.19712,-0.9207 z m -27.27231,-8.2094 c -1.45454,0.3107 -2.81597,0.878 -3.97981,1.6738 -0.42289,0.033 -0.84951,0.064 -1.27631,0.094 l 10e-4,12.8825 c 0.4244,0.03 0.84868,0.061 1.26928,0.093 1.16554,0.7965 2.52964,1.3638 3.98584,1.6747 l 0,-16.4187 z m -9.53365,2.0142 c -1.00318,0.041 -1.94063,0.065 -2.76283,0.065 -0.58041,0 -1.21884,-0.013 -1.89687,-0.034 l 10e-4,12.3275 c 0.67771,-0.022 1.31568,-0.033 1.89586,-0.033 0.82214,0 1.75968,0.023 2.76284,0.065 l 0,-12.3904 z m -8.84469,-0.1807 c -0.74305,-0.049 -1.49249,-0.1022 -2.23078,-0.1588 -1.84996,-1.2643 -4.19934,-1.9513 -6.62498,-1.9513 -4.98372,0 -9.15129,2.8411 -10.18035,6.6428 l -12.97336,0 c -0.52827,0 -1.01621,0.3511 -1.28034,0.9207 -0.26413,0.5696 -0.26413,1.2709 0,1.8405 0.26413,0.5696 0.75207,0.9211 1.28034,0.9207 l 12.97336,0 c 1.0291,3.8017 5.19666,6.642 10.18035,6.642 2.42385,0 4.77164,-0.6858 6.61994,-1.9495 0.73984,-0.057 1.49004,-0.1109 2.23481,-0.1597 l 10e-4,-12.7526 z"
         id="path4527"
         inkscape:connector-curvature="0" />
      <text
         sodipodi:linespacing="100%"
         id="text5401"
         y="-1060.1298"
         x="419.4631"
         style="font-style:normal;font-variant:normal;font-weight:bold;font-stretch:normal;font-size:15.43624973px;line-height:100%;font-family:'Alegreya Sans';-inkscape-font-specification:'Alegreya Sans, Bold';text-align:center;letter-spacing:0px;word-spacing:0px;writing-mode:lr-tb;text-anchor:middle;fill:#000000;fill-opacity:1;stroke:none;stroke-width:1px;stroke-linecap:butt;stroke-linejoin:miter;stroke-opacity:1"
         xml:space="preserve"><tspan
           id="tspan5409"
           y="-1060.1298"
           x="420.62384"
           sodipodi:role="line">Check twice, </tspan><tspan
           id="tspan5454"
           y="-1044.6935"
           x="420.62384"
           sodipodi:role="line">solder once </tspan></text>
      <text
         xml:space="preserve"
         style="font-style:normal;font-variant:normal;font-weight:500;font-stretch:normal;font-size:15.43646431px;line-height:100%;font-family:'Alegreya Sans';-inkscape-font-specification:'Alegreya Sans, Medium';text-align:center;letter-spacing:0px;word-spacing:0px;writing-mode:lr-tb;text-anchor:middle;fill:#000000;fill-opacity:1;stroke:none;stroke-width:1px;stroke-linecap:butt;stroke-linejoin:miter;stroke-opacity:1"
         x="419.68646"
         y="-1183.9237"
         id="text5411"
         sodipodi:linespacing="100%"><tspan
           sodipodi:role="line"
           x="419.68646"
           y="-1183.9237"
           id="tspan5415">Component side</tspan></text>
      <text
         sodipodi:linespacing="100%"
         id="text5419"
         y="-1123.0859"
         x="419.65558"
         style="font-style:normal;font-variant:normal;font-weight:500;font-stretch:normal;font-size:15.43646431px;line-height:100%;font-family:'Alegreya Sans';-inkscape-font-specification:'Alegreya Sans, Medium';text-align:center;letter-spacing:0px;word-spacing:0px;writing-mode:lr-tb;text-anchor:middle;fill:#000000;fill-opacity:1;stroke:none;stroke-width:1px;stroke-linecap:butt;stroke-linejoin:miter;stroke-opacity:1"
         xml:space="preserve"><tspan
           id="tspan5421"
           y="-1123.0859"
           x="419.65558"
           sodipodi:role="line">Solder side</tspan></text>
    </g>
    <path
       style="fill:none;fill-rule:evenodd;stroke:#000000;stroke-width:1.65264571;stroke-linecap:butt;stroke-linejoin:miter;stroke-miterlimit:4;stroke-dasharray:6.61058283, 6.61058283;stroke-dashoffset:1.9831748;stroke-opacity:1"
       d="m 483.29339,-1199.0533 0,161.1194"
       id="path5473"
       inkscape:connector-curvature="0"
       sodipodi:nodetypes="cc" />
    <rect
       ry="0"
       y="-282.8833"
       x="272.20279"
       height="288.77954"
       width="350.78741"
       id="rect10196"
       style="opacity:1;fill:none;fill-opacity:0.66666667;stroke:#cccccc;stroke-width:0.5;stroke-linecap:round;stroke-linejoin:round;stroke-miterlimit:4;stroke-dasharray:none;stroke-dashoffset:0;stroke-opacity:1"
       inkscape:export-xdpi="300.01074"
       inkscape:export-ydpi="300.01074" />
    <rect
       style="opacity:1;fill:none;fill-opacity:0.66666667;stroke:#cccccc;stroke-width:0.4;stroke-linecap:round;stroke-linejoin:round;stroke-miterlimit:4;stroke-dasharray:none;stroke-dashoffset:0;stroke-opacity:1"
       id="rect10198"
       width="350.78741"
       height="175.39371"
       x="272.20279"
       y="-226.19043"
       ry="0"
       inkscape:export-xdpi="300.01074"
       inkscape:export-ydpi="300.01074" />
    <text
       xml:space="preserve"
       style="font-style:normal;font-variant:normal;font-weight:500;font-stretch:normal;font-size:20.88926697px;line-height:100%;font-family:'Alegreya Sans';-inkscape-font-specification:'Alegreya Sans, Medium';text-align:center;letter-spacing:0px;word-spacing:0px;writing-mode:lr-tb;text-anchor:middle;fill:#000000;fill-opacity:1;stroke:none;stroke-width:1px;stroke-linecap:butt;stroke-linejoin:miter;stroke-opacity:1"
       x="512.98279"
       y="-69.513687"
       id="text10202"
       sodipodi:linespacing="100%"
       inkscape:export-xdpi="300.01074"
       inkscape:export-ydpi="300.01074"><tspan
         sodipodi:role="line"
         x="512.98279"
         y="-69.513687"
         id="tspan10204">http://boldport.com/tap</tspan></text>
    <text
       sodipodi:linespacing="100%"
       id="text10206"
       y="-112.12282"
       x="512.92822"
       style="font-style:normal;font-variant:normal;font-weight:normal;font-stretch:normal;font-size:15.43272018px;line-height:100%;font-family:'Alegreya Sans';-inkscape-font-specification:'Alegreya Sans, Normal';text-align:center;letter-spacing:0px;word-spacing:0px;writing-mode:lr-tb;text-anchor:middle;fill:#000000;fill-opacity:1;stroke:none;stroke-width:1px;stroke-linecap:butt;stroke-linejoin:miter;stroke-opacity:1"
       xml:space="preserve"
       inkscape:export-xdpi="300.01074"
       inkscape:export-ydpi="300.01074"><tspan
         id="tspan10208"
         y="-112.12282"
         x="512.92822"
         sodipodi:role="line">Elektor, December 1974</tspan><tspan
         id="tspan10210"
         y="-96.690079"
         x="512.92822"
         sodipodi:role="line">Boldport, July 2016</tspan></text>
    <path
       id="path10214"
       pcbmode:id="41a729dbe"
       pcbmode:gerber-lp="dc"
       pcbmode:style="fill"
       style="fill:#000000;fill-opacity:1;stroke:#ffffff;stroke-width:0.69999999;stroke-miterlimit:4;stroke-dasharray:none;stroke-opacity:1"
       d="m 488.60697,-211.33767 c -3.96708,-0.0352 -6.42587,2.58248 -6.42587,6.82941 l 0,1.49698 -0.98504,0.54187 c -1.97879,1.08763 -2.99989,2.69066 -3.02463,4.75069 -0.0281,2.30711 0.95719,3.99884 2.92231,5.02035 0.48516,0.25096 0.93551,0.54399 1.00008,0.64932 0.0645,0.10606 0.15598,3.36432 0.2047,7.24228 0.0484,3.8779 0.13811,7.55511 0.19805,8.17225 0.31897,3.28201 2.76704,5.53114 6.00976,5.51809 2.45186,0 4.40538,-1.28456 5.42991,-3.5411 0.47658,-1.0498 0.10447,-2.10111 0.13987,-6.15506 0.0386,-4.48976 0.62683,-4.47206 1.10711,-2.049 0.55306,2.79166 2.07683,5.70323 4.16113,7.95097 1.82456,1.96739 5.04669,3.5757 8.00848,3.99671 0.22013,0.0352 1.10589,0.0425 1.9687,0.0352 3.37883,-0.0638 6.19758,-1.41635 7.73832,-3.71606 2.03348,-3.03522 0.92555,-7.30627 -2.26474,-8.72966 -0.61555,-0.27573 -1.69656,-0.48888 -2.9742,-0.58995 -2.82348,-0.22267 -3.9891,-0.86459 -4.52812,-2.48741 -0.7205,-2.16924 0.37323,-4.27985 2.56352,-4.94471 2.68057,-0.81335 4.45448,1.24389 4.45448,5.16598 l 0,1.6306 0.83908,0.43053 c 1.88541,0.96992 3.35525,2.83381 3.69865,4.68737 0.33124,1.78788 -0.0315,3.5153 -1.09968,5.26354 -0.52274,0.85432 -0.9495,1.67332 -0.9495,1.82182 0,0.14842 0.34877,0.46447 0.77624,0.70268 2.35458,1.31352 5.37543,0.92579 7.25401,-0.93136 1.8036,-1.78261 1.99811,-2.89567 1.83501,-10.50274 -0.0684,-3.16181 -0.13495,-7.48973 -0.14722,-9.6169 -0.0372,-5.92598 -0.39756,-7.26522 -2.39843,-8.90681 -2.26279,-1.85642 -6.12026,-1.70228 -8.03305,0.32169 -0.33475,0.35416 -0.72222,0.64404 -0.86085,0.64404 -0.1388,0 -1.03084,-0.37608 -1.98233,-0.83527 -2.14129,-1.03317 -3.25882,-1.25767 -5.77236,-1.16114 -1.99106,0.0778 -2.8804,0.33225 -4.87059,1.4047 -0.85499,0.46022 -2.99894,2.31069 -3.1212,2.59457 -0.18192,0.42239 -0.31775,-0.41687 -0.67024,-1.21889 -0.50923,-1.15689 -1.74411,-2.26116 -3.21703,-2.87654 l -1.18017,-0.49276 -0.007,-0.95467 c -0.0105,-1.25203 -0.45295,-3.2834 -0.90988,-4.16851 -0.56823,-1.10111 -2.11701,-2.49834 -3.05058,-2.75179 -0.45595,-0.12372 -1.2828,-0.22978 -1.83638,-0.2333 z m 6.70766,20.64912 c -0.43086,2.54744 -1.48973,2.59377 -1.37014,0.0778 0.046,-0.96288 0.19677,-1.71958 0.55765,-2.0489 1.24135,-1.39939 1.08117,0.36158 0.81249,1.9711 z"
       inkscape:connector-curvature="0"
       sodipodi:nodetypes="csccccccccccccccsccscsccscsccccccscccccccccccccccc"
       inkscape:export-xdpi="300.01074"
       inkscape:export-ydpi="300.01074" />
    <path
       id="path10216"
       pcbmode:id="cb6507656"
       pcbmode:style="fill"
       style="fill:#000000;fill-opacity:1;stroke:#ffffff;stroke-width:0.69999999;stroke-miterlimit:4;stroke-dasharray:none;stroke-opacity:1"
       d="m 583.33804,-151.81938 c -3.24169,-0.72283 -5.14042,-3.66937 -4.57111,-7.09379 0.62943,-3.78605 4.4744,-5.91117 8.17151,-4.51636 1.26078,0.47583 2.51039,1.68571 3.2489,3.14523 0.6343,1.25371 0.5234,4.09426 -0.20785,5.32467 -1.04901,1.7656 -2.15185,2.60087 -4.10982,3.11233 -0.68422,0.1803 -1.27726,0.31458 -1.31781,0.30395 -0.0411,0 -0.58671,-0.13428 -1.21379,-0.27566 z"
       inkscape:connector-curvature="0"
       sodipodi:nodetypes="csccccccc"
       inkscape:export-xdpi="300.01074"
       inkscape:export-ydpi="300.01074" />
    <path
       id="path10218"
       pcbmode:id="7b50d28fc"
       pcbmode:gerber-lp="dccccc"
       pcbmode:style="fill"
       style="fill:#000000;fill-opacity:1;stroke:#ffffff;stroke-width:0.69999999;stroke-miterlimit:4;stroke-dasharray:none;stroke-opacity:1"
       d="m 449.13356,-165.82782 c -1.35266,0 -2.69231,0.0919 -3.43398,0.27925 -4.08377,1.02503 -7.02943,3.88325 -7.69465,7.46635 -0.38154,2.05512 0.0684,5.02218 0.88815,5.84858 0.24957,0.25096 0.48438,0.27214 1.2251,0.099 1.76897,-0.41104 3.49385,-0.27926 4.85554,0.37153 1.87017,0.89354 3.42035,2.86239 3.42035,4.34486 0,0.34639 0.25167,0.67512 0.81993,1.07172 0.7354,0.51328 1.45981,1.55033 1.45981,2.09118 0,0.49166 -0.88379,1.30392 -1.4134,1.29717 -1.10897,0 -1.69609,-0.88965 -1.69855,-2.54106 -0.007,-3.05963 -2.18441,-4.94797 -4.36737,-5.44564 -2.7183,-0.39291 -5.77328,0.81478 -6.72715,4.12361 -0.88878,3.08301 0.52413,6.97088 3.41757,9.402 3.77482,3.17206 11.30631,4.11618 15.61175,1.95646 2.22338,-1.11518 3.8806,-2.78953 4.84465,-4.89376 0.39072,-0.85257 0.77758,-1.54931 0.85943,-1.54894 0.082,0 0.47545,0.49239 0.87451,1.09502 1.65498,2.4998 4.85128,4.96347 7.65102,5.89666 1.60086,0.53374 4.79914,0.99858 5.92653,0.86247 0.34211,-0.0425 1.27431,-0.13787 2.07241,-0.21564 4.71787,-0.46088 9.47565,-3.7302 10.69203,-7.34511 0.43349,-1.28875 0.60573,-1.30539 0.60573,-0.0564 0,3.49478 1.0973,5.55943 3.62634,6.8171 3.37383,1.67721 7.68291,-0.544 8.39454,-4.32829 0.11567,-0.61048 0.20891,-3.70793 0.20891,-6.88314 0,-3.17558 0.0883,-6.08789 0.19769,-6.47174 0.46812,-1.64576 2.32655,-2.258 3.63725,-1.19822 l 0.62077,0.50192 0.003,6.76081 c 0.003,6.80083 0.0981,8.11537 0.66585,9.26875 0.55739,1.13145 1.93648,2.37395 3.05058,2.75003 3.49934,1.18093 7.04048,-0.64295 8.07942,-4.16177 0.1749,-0.59244 0.59354,-0.40972 1.30561,0.56694 0.80571,1.10499 2.79379,2.68252 4.07655,3.23707 1.07274,0.46381 3.40261,1.16437 4.50496,1.35384 0.41231,0.0704 1.71815,0.13427 2.90188,0.14138 4.79165,0.0352 8.51414,-2.00806 10.34687,-5.64496 0.35298,-0.70056 0.70907,-1.27248 0.78993,-1.27248 0.0806,0 0.55814,0.57016 1.06141,1.2672 1.43055,1.98087 3.26209,3.57958 5.1107,4.46293 2.28279,1.09078 2.31781,1.1039 3.70678,1.35376 0.68411,0.12373 1.43103,0.2687 1.65902,0.3217 0.22818,0.0528 1.48711,0.0674 2.79816,0.0352 5.27435,-0.14491 9.42823,-2.41632 12.16824,-6.65483 0.50166,-0.77619 1.0008,-1.41034 1.10926,-1.41034 0.10795,0 0.19909,0.3535 0.20049,0.7844 0.007,1.82564 0.96628,4.3777 1.99597,5.31338 0.21136,0.19086 0.86368,0.59201 1.45027,0.88863 1.57781,0.79738 3.7763,0.77019 5.41764,-0.0674 1.27236,-0.64822 1.57854,-0.93561 2.31933,-2.18192 0.82706,-1.39129 1.04217,-3.31206 1.04231,-9.28641 l 10e-4,-5.48731 -1.44888,-1.42947 c -1.99782,-1.97127 -2.38813,-2.88504 -2.38069,-5.57072 0.007,-2.21622 0.15072,-2.65636 1.45841,-4.47957 0.28322,-0.39447 0.48585,-0.81827 0.4502,-0.94089 -0.0361,-0.12372 -0.62063,-0.50551 -1.30018,-0.85015 -1.02913,-0.52237 -1.47905,-0.62594 -2.68765,-0.61927 -3.53422,0.0352 -5.73938,2.33577 -6.04661,6.35329 -0.0771,1.01059 -0.22048,1.68571 -0.35746,1.68542 -0.12549,0 -0.50328,-0.44578 -0.83897,-0.9919 -1.05819,-1.71994 -3.34278,-3.82981 -5.37537,-4.96523 -2.12429,-1.18657 -3.7478,-1.59519 -6.82971,-1.71957 -2.932,-0.12021 -3.67555,-0.0352 -6.5664,0.8006 -2.61643,0.75039 -5.67951,3.13703 -7.41774,5.77675 -0.40303,0.61223 -1.01369,1.57026 -1.13763,1.52856 -0.12409,-0.0425 -0.10781,-1.0015 -0.183,-1.53098 -0.1686,-1.19017 -0.062,-2.11354 -1.1905,-3.32877 -0.85797,-0.92396 -1.46255,-0.88958 -2.13565,-0.61568 -3.0638,1.24602 -3.38466,1.28384 -5.73963,0.66706 -1.60605,-0.42035 -2.56619,-1.13219 -3.6045,-2.67014 -0.35719,-0.52919 -0.60795,-0.68186 -1.12139,-0.68259 -0.90045,0 -3.49966,0.96537 -4.55406,1.69494 -2.75986,1.91015 -4.52269,5.71453 -3.99471,8.61796 0.27937,1.53546 0.82495,3.02218 1.1583,3.15191 0.13214,0.0528 0.739,-0.0388 1.34793,-0.20501 2.18381,-0.58606 4.01692,-0.21211 5.88562,1.1972 0.96827,0.73098 2.04353,2.53968 2.28657,3.84645 0.0782,0.42101 0.28393,0.75047 0.51432,0.82435 0.62323,0.1979 1.43798,1.33148 1.43798,1.99744 0,1.2573 -1.59627,1.92891 -2.47622,1.04167 -0.4127,-0.41639 -0.52164,-0.86774 -0.73128,-3.02283 -0.14757,-1.51538 -0.54201,-2.38634 -1.5594,-3.44355 -1.03747,-1.0781 -2.53854,-1.58992 -4.11476,-1.40331 -1.17095,0.13787 -3.12814,0.96185 -3.5731,1.50226 -0.13284,0.16264 -0.37074,0.2934 -0.52935,0.2934 -0.23871,0 -0.28252,-0.75817 -0.25798,-4.33819 0.0175,-2.62873 -0.0645,-4.74849 -0.20892,-5.38191 -0.68021,-2.9897 -2.36814,-5.23708 -4.8528,-6.46081 -1.86425,-0.91795 -2.80651,-1.16642 -4.43265,-1.16781 -1.8901,0 -4.01019,0.51746 -5.97293,1.46231 -0.95597,0.46022 -1.78987,0.83666 -1.85271,0.83666 -0.0635,0 -0.55705,-0.34287 -1.09965,-0.76249 -2.4582,-1.89915 -4.95829,-2.0925 -7.3509,-0.56943 -1.84977,1.17742 -2.62109,2.71082 -2.79684,5.56368 -0.0694,1.12083 -0.1991,2.03878 -0.28778,2.03878 -0.0894,0 -0.36475,-0.41177 -0.61389,-0.91472 -0.24923,-0.50339 -0.95612,-1.55071 -1.57034,-2.328 -1.93925,-2.45377 -4.26191,-3.91293 -7.70012,-4.83586 -1.85457,-0.49767 -2.25686,-0.53198 -5.22664,-0.44432 -2.82172,0.0813 -3.40681,0.16265 -4.7669,0.65468 -0.85289,0.30747 -1.90021,0.79349 -2.32749,1.07875 -0.42739,0.28629 -0.87501,0.51856 -0.9946,0.51856 -0.30075,0 -3.71765,3.48768 -4.35213,4.44242 -0.28497,0.42914 -0.8971,1.31652 -0.97835,1.31725 -0.0806,0 -0.16378,-0.89016 -0.29274,-1.37867 -0.36034,-1.36688 -1.21332,-2.80302 -2.22247,-3.74076 -1.04876,-0.9749 -3.49213,-2.32346 -5.31589,-2.75223 -0.79189,-0.18734 -2.1577,-0.27926 -3.51036,-0.27926 z m 1.221,10.10401 c 0.59715,-0.0704 1.48841,0.24386 2.66448,0.94514 2.3168,1.38103 4.04416,1.50937 5.63868,0.41815 0.42389,-0.28981 1.2561,-1.11131 1.30454,-1.06257 0.0484,0.0491 -0.45343,1.31353 -0.57192,2.04634 -0.11812,0.73273 -0.21627,1.72632 -0.21697,2.20808 -7.3e-4,0.48185 -0.0722,0.91905 -0.15668,0.97138 -0.0859,0.0528 -0.75913,-0.27221 -1.49666,-0.72393 -1.30887,-0.7995 -2.77342,-1.31631 -5.29211,-1.86419 -2.28841,-0.49767 -3.13716,-1.27035 -2.62904,-2.39513 0.14511,-0.32169 0.39756,-0.50119 0.75589,-0.54327 z m 24.12365,0.38913 c 1.64502,0.0352 2.58298,1.67831 1.39566,2.46264 -0.46998,0.31106 -1.98745,0.36801 -3.59084,0.13435 -0.59542,-0.0848 -0.61032,-0.69455 -0.041,-1.62349 0.48287,-0.78792 0.95212,-0.99256 2.23611,-0.97416 z m 57.07296,0.59032 c 0.34631,0.0352 0.682,0.13786 0.89771,0.30402 0.30565,0.23323 1.75338,1.05259 2.63311,1.49126 1.24933,0.62316 3.03375,0.40965 4.01381,-0.4814 0.49195,-0.44754 1.32719,-1.04474 1.30494,-0.66295 -0.007,0.14491 -0.57355,1.68271 -0.76469,2.76571 -0.19103,1.08309 -0.43979,1.99891 -0.55393,2.03636 -0.11426,0.0388 -0.4875,-0.12372 -0.82954,-0.35526 -1.30603,-0.88863 -3.02453,-1.51215 -5.21163,-1.89035 -0.78159,-0.13428 -1.67671,-0.37608 -1.98917,-0.53623 -1.26955,-0.65108 -1.52557,-2.05966 -0.46252,-2.54818 0.25764,-0.12013 0.61556,-0.15553 0.9618,-0.12013 z m 23.5356,1.60267 c 1.32245,-0.0352 2.6491,0.54077 3.41761,1.78715 0.38056,0.61714 0.47755,1.07172 0.47755,2.25375 0,1.27211 -0.0806,1.59768 -0.56623,2.30425 -0.31091,0.45245 -0.85787,0.99644 -1.21553,1.20959 -0.97873,0.58284 -2.98746,0.6606 -4.05475,0.15553 -1.56935,-0.74263 -2.44677,-2.93026 -1.93866,-4.833 0.48674,-1.82293 2.17981,-2.84158 3.88008,-2.87691 z m -72.03936,2.68142 c 0.22819,0 0.48932,0.0352 0.8186,0.0491 1.05121,0.0884 1.75471,0.2934 2.60853,0.75926 1.42081,0.7762 1.61282,0.78543 2.05602,0.10247 0.52834,-0.81292 0.69602,-0.28981 0.67128,2.10357 -0.0105,1.14985 -0.0859,2.37248 -0.16369,2.71712 l -0.14056,0.6274 -0.1651,-0.83629 c -0.37554,-1.9141 -2.00743,-3.56515 -4.13382,-4.18266 -2.0137,-0.5846 -3.1598,-0.1202 -6.29352,2.54393 -1.47551,1.25517 -2.52094,1.64899 -3.84602,1.44889 -1.04315,-0.15905 -2.16306,-1.12119 -1.95092,-1.6786 0.102,-0.2687 0.5426,-0.32521 2.52806,-0.32521 l 2.40254,0 1.08738,-1.03742 c 0.59812,-0.57053 1.72031,-1.33543 2.49395,-1.70059 0.96502,-0.45524 1.34323,-0.5956 2.02733,-0.59032 z"
       inkscape:connector-curvature="0"
       sodipodi:nodetypes="ccscccscscccscccccccccsccscscsccccccccsccccccsccccccccccccccccccccccccccccccccccsccsccscccccscccsccccccsccccccccccccccccccccccccccccccccccccccccsccccccccccccccccccsccccc"
       inkscape:export-xdpi="300.01074"
       inkscape:export-ydpi="300.01074" />
    <path
       id="path10220"
       pcbmode:id="40644e008"
       pcbmode:style="fill"
       style="fill:#000000;fill-opacity:1;stroke:#ffffff;stroke-width:0.69999999;stroke-miterlimit:4;stroke-dasharray:none;stroke-opacity:1"
       d="m 531.95935,-161.79579 c -1.17124,-0.33928 -2.57514,-1.36153 -3.29735,-2.39968 -1.14042,-1.63909 -1.20015,-2.48844 -1.40453,-19.93478 -0.0708,-6.03548 -0.13916,-11.02087 -0.15213,-11.07884 -0.10936,-0.48529 0.40127,-2.79386 0.78457,-3.551 1.73304,-3.42405 6.28065,-4.28586 9.40326,-1.78217 0.49831,0.39975 0.96467,0.69491 1.03646,0.6557 0.0718,-0.0388 0.78331,-0.45707 1.58141,-0.92894 2.03978,-1.20644 3.65666,-1.58604 6.11503,-1.43512 3.36226,0.205 5.35532,1.15022 8.01223,3.79382 1.56044,1.55283 2.05019,2.20318 2.75904,3.66446 1.49133,3.0748 1.77024,4.39507 1.76617,8.36135 -0.002,2.6818 -0.0869,3.75139 -0.37905,4.80794 -0.5296,1.91615 -1.5731,4.06736 -2.70668,5.57988 -1.01732,1.35698 -3.44835,3.34137 -4.68411,3.82314 -0.39903,0.15553 -0.82516,0.35841 -0.947,0.45069 -0.12163,0.0919 -1.00802,0.35842 -1.96926,0.59069 -3.99758,0.96639 -7.39142,0.21204 -9.83784,-2.18801 -3.01941,-2.96178 -2.52371,-7.77741 0.97536,-9.47514 0.49283,-0.24041 1.91566,-0.58643 3.1619,-0.77165 2.34488,-0.34991 3.11171,-0.61861 3.64236,-1.28024 0.64633,-0.80632 0.82867,-1.35809 0.82867,-2.5086 0,-1.58816 -0.72856,-2.8794 -1.93732,-3.43263 -1.04838,-0.4803 -1.67819,-0.4998 -2.8327,-0.0883 -1.6662,0.59274 -2.27782,1.84616 -2.27782,4.66794 l 0,1.69385 -1.08823,0.70517 c -2.59079,1.67897 -3.6093,3.59622 -3.41655,6.43142 0.17175,2.52766 1.42658,4.5322 3.99541,6.38261 l 0.61305,0.44153 -0.0449,2.1353 c -0.0361,1.76913 -0.13074,2.32052 -0.54972,3.21656 -0.50734,1.08484 -1.41946,2.18558 -2.28458,2.75714 -1.2189,0.80514 -3.41109,1.11943 -4.8661,0.69703 z"
       inkscape:connector-curvature="0"
       sodipodi:nodetypes="cccccccccccccccccccccsccscccccccccc"
       inkscape:export-xdpi="300.01074"
       inkscape:export-ydpi="300.01074" />
    <g
       transform="translate(-80,981.1561)"
       id="g10222"
       inkscape:export-xdpi="300.01074"
       inkscape:export-ydpi="300.01074">
      <rect
         style="opacity:1;fill:#cccccc;fill-opacity:1;stroke:#cccccc;stroke-width:1.88888359;stroke-linecap:round;stroke-linejoin:round;stroke-miterlimit:4;stroke-dasharray:none;stroke-opacity:1"
         id="rect10224"
         width="35.994804"
         height="102.51735"
         x="-1178.5537"
         y="-470.9379"
         ry="4.7806015"
         transform="matrix(0,1,-1,0,0,0)" />
      <rect
         ry="4.7806015"
         y="-470.9379"
         x="-1118.9042"
         height="102.51735"
         width="35.994804"
         id="rect10226"
         style="opacity:0.95;fill:#cccccc;fill-opacity:1;stroke:#000000;stroke-width:1.88890874;stroke-linecap:round;stroke-linejoin:round;stroke-miterlimit:4;stroke-dasharray:none;stroke-opacity:1"
         transform="matrix(0,1,-1,0,0,0)" />
      <g
         id="g10228"
         style="fill:#000000"
         transform="translate(142.52242,-4)">
        <circle
           transform="matrix(0,1,-1,0,0,0)"
           r="6.8694897"
           cy="-238.75999"
           cx="-1096.9069"
           id="circle10230"
           style="opacity:1;fill:#000000;fill-opacity:1;stroke:none;stroke-width:1.77165353;stroke-linecap:round;stroke-linejoin:round;stroke-miterlimit:4;stroke-dasharray:none;stroke-opacity:1" />
        <circle
           transform="matrix(0,1,-1,0,0,0)"
           style="opacity:1;fill:#000000;fill-opacity:1;stroke:none;stroke-width:1.77165353;stroke-linecap:round;stroke-linejoin:round;stroke-miterlimit:4;stroke-dasharray:none;stroke-opacity:1"
           id="circle10232"
           cx="-1096.9069"
           cy="-315.55362"
           r="6.8694897" />
      </g>
      <path
         inkscape:connector-curvature="0"
         id="path10234"
         d="m 459.24979,-1160.5562 c 0,-0.3179 -0.0651,-0.6351 -0.19712,-0.9199 -0.26414,-0.5696 -0.75306,-0.9208 -1.28537,-0.9206 l -12.96934,0 c -0.92648,-3.4228 -4.39718,-6.0669 -8.71696,-6.56 l 10e-4,16.8062 c 4.31931,-0.4934 7.78952,-3.1366 8.71596,-6.5591 l 12.96934,0 c 0.53231,3e-4 1.02123,-0.3511 1.28537,-0.9207 0.13206,-0.2848 0.19712,-0.6028 0.19712,-0.9207 z m -27.27231,-8.2094 c -1.45454,0.3107 -2.81597,0.878 -3.97981,1.6738 -0.42289,0.033 -0.84951,0.064 -1.27631,0.094 l 10e-4,12.8825 c 0.4244,0.03 0.84868,0.061 1.26928,0.093 1.16554,0.7965 2.52964,1.3638 3.98584,1.6747 l 0,-16.4187 z m -9.53365,2.0142 c -1.00318,0.041 -1.94063,0.065 -2.76283,0.065 -0.58041,0 -1.21884,-0.013 -1.89687,-0.034 l 10e-4,12.3275 c 0.67771,-0.022 1.31568,-0.033 1.89586,-0.033 0.82214,0 1.75968,0.023 2.76284,0.065 l 0,-12.3904 z m -8.84469,-0.1807 c -0.74305,-0.049 -1.49249,-0.1022 -2.23078,-0.1588 -1.84996,-1.2643 -4.19934,-1.9513 -6.62498,-1.9513 -4.98372,0 -9.15129,2.8411 -10.18035,6.6428 l -12.97336,0 c -0.52827,0 -1.01621,0.3511 -1.28034,0.9207 -0.26413,0.5696 -0.26413,1.2709 0,1.8405 0.26413,0.5696 0.75207,0.9211 1.28034,0.9207 l 12.97336,0 c 1.0291,3.8017 5.19666,6.642 10.18035,6.642 2.42385,0 4.77164,-0.6858 6.61994,-1.9495 0.73984,-0.057 1.49004,-0.1109 2.23481,-0.1597 l 10e-4,-12.7526 z"
         style="fill:#000000;fill-opacity:1;fill-rule:evenodd;stroke:#000000;stroke-width:0.84981662;stroke-linecap:round;stroke-linejoin:round;stroke-miterlimit:4;stroke-dasharray:none;stroke-opacity:1" />
      <text
         xml:space="preserve"
         style="font-style:normal;font-variant:normal;font-weight:bold;font-stretch:normal;font-size:15.43624973px;line-height:100%;font-family:'Alegreya Sans';-inkscape-font-specification:'Alegreya Sans, Bold';text-align:center;letter-spacing:0px;word-spacing:0px;writing-mode:lr-tb;text-anchor:middle;fill:#000000;fill-opacity:1;stroke:none;stroke-width:1px;stroke-linecap:butt;stroke-linejoin:miter;stroke-opacity:1"
         x="419.4631"
         y="-1060.1298"
         id="text10236"
         sodipodi:linespacing="100%"><tspan
           sodipodi:role="line"
           x="420.62384"
           y="-1060.1298"
           id="tspan10238">Check twice, </tspan><tspan
           sodipodi:role="line"
           x="420.62384"
           y="-1044.6935"
           id="tspan10240">solder once </tspan></text>
      <text
         sodipodi:linespacing="100%"
         id="text10242"
         y="-1183.9237"
         x="419.68646"
         style="font-style:normal;font-variant:normal;font-weight:500;font-stretch:normal;font-size:15.43646431px;line-height:100%;font-family:'Alegreya Sans';-inkscape-font-specification:'Alegreya Sans, Medium';text-align:center;letter-spacing:0px;word-spacing:0px;writing-mode:lr-tb;text-anchor:middle;fill:#000000;fill-opacity:1;stroke:none;stroke-width:1px;stroke-linecap:butt;stroke-linejoin:miter;stroke-opacity:1"
         xml:space="preserve"><tspan
           id="tspan10244"
           y="-1183.9237"
           x="419.68646"
           sodipodi:role="line">Component side</tspan></text>
      <text
         xml:space="preserve"
         style="font-style:normal;font-variant:normal;font-weight:500;font-stretch:normal;font-size:15.43646431px;line-height:100%;font-family:'Alegreya Sans';-inkscape-font-specification:'Alegreya Sans, Medium';text-align:center;letter-spacing:0px;word-spacing:0px;writing-mode:lr-tb;text-anchor:middle;fill:#000000;fill-opacity:1;stroke:none;stroke-width:1px;stroke-linecap:butt;stroke-linejoin:miter;stroke-opacity:1"
         x="419.65558"
         y="-1123.0859"
         id="text10246"
         sodipodi:linespacing="100%"><tspan
           sodipodi:role="line"
           x="419.65558"
           y="-1123.0859"
           id="tspan10248">Solder side</tspan></text>
    </g>
    <path
       sodipodi:nodetypes="cc"
       inkscape:connector-curvature="0"
       id="path10250"
       d="m 403.29339,-219.0533 0,161.1194"
       style="fill:none;fill-rule:evenodd;stroke:#000000;stroke-width:1.65264571;stroke-linecap:butt;stroke-linejoin:miter;stroke-miterlimit:4;stroke-dasharray:6.61058283, 6.61058283;stroke-dashoffset:1.9831748;stroke-opacity:1"
       inkscape:export-xdpi="300.01074"
       inkscape:export-ydpi="300.01074" />
  </g>
</svg>
