<?xml version="1.0" encoding="UTF-8" standalone="no"?>
<!-- Created with Inkscape (http://www.inkscape.org/) -->

<svg
   xmlns:pcbmode="pcbmode"
   xmlns:dc="http://purl.org/dc/elements/1.1/"
   xmlns:cc="http://creativecommons.org/ns#"
   xmlns:rdf="http://www.w3.org/1999/02/22-rdf-syntax-ns#"
   xmlns:svg="http://www.w3.org/2000/svg"
   xmlns="http://www.w3.org/2000/svg"
   xmlns:sodipodi="http://sodipodi.sourceforge.net/DTD/sodipodi-0.dtd"
   xmlns:inkscape="http://www.inkscape.org/namespaces/inkscape"
   width="210mm"
   height="297mm"
   viewBox="0 0 744.09448 1052.3621"
   id="svg2"
   version="1.1"
   inkscape:version="0.91 r13725"
   sodipodi:docname="card-cover.svg"
   inkscape:export-filename="/home/saar/proj/boards/tap/docs/schematics.png"
   inkscape:export-xdpi="90.014938"
   inkscape:export-ydpi="90.014938">
  <defs
     id="defs4" />
  <sodipodi:namedview
     id="base"
     pagecolor="#ffffff"
     bordercolor="#666666"
     borderopacity="1.0"
     inkscape:pageopacity="0.0"
     inkscape:pageshadow="2"
     inkscape:zoom="2.8"
     inkscape:cx="541.6191"
     inkscape:cy="881.32155"
     inkscape:document-units="px"
     inkscape:current-layer="layer1"
     showgrid="false"
     inkscape:window-width="1881"
     inkscape:window-height="1056"
     inkscape:window-x="39"
     inkscape:window-y="24"
     inkscape:window-maximized="1"
     showguides="false"
     fit-margin-left="10"
     fit-margin-top="10"
     fit-margin-right="10"
     fit-margin-bottom="10"
     inkscape:snap-global="false">
    <sodipodi:guide
       position="287.41237,1192.6197"
       orientation="1,0"
       id="guide5095" />
  </sodipodi:namedview>
  <metadata
     id="metadata7">
    <rdf:RDF>
      <cc:Work
         rdf:about="">
        <dc:format>image/svg+xml</dc:format>
        <dc:type
           rdf:resource="http://purl.org/dc/dcmitype/StillImage" />
        <dc:title />
      </cc:Work>
    </rdf:RDF>
  </metadata>
  <g
     inkscape:label="Layer 1"
     inkscape:groupmode="layer"
     id="layer1"
     transform="translate(88.412337,322.60886)">
    <rect
       style="opacity:1;fill:#e7e7e7;fill-opacity:0.66666667;stroke:none;stroke-width:3.671;stroke-linecap:round;stroke-linejoin:round;stroke-miterlimit:4;stroke-dasharray:none;stroke-dashoffset:0;stroke-opacity:1"
       id="rect5450"
       width="350.78741"
       height="288.77954"
       x="352.20279"
       y="-1262.8833"
       ry="0" />
    <rect
       ry="0"
       y="-1206.1904"
       x="352.20279"
       height="175.39371"
       width="350.78741"
       id="rect5452"
       style="opacity:1;fill:#e7e7e7;fill-opacity:0.66666667;stroke:none;stroke-width:3.671;stroke-linecap:round;stroke-linejoin:round;stroke-miterlimit:4;stroke-dasharray:none;stroke-dashoffset:0;stroke-opacity:1" />
    <g
       id="g5475"
       transform="translate(0,5.3994188)">
      <text
         xml:space="preserve"
         style="font-style:normal;font-variant:normal;font-weight:500;font-stretch:normal;font-size:20.88926697px;line-height:100%;font-family:'Alegreya Sans';-inkscape-font-specification:'Alegreya Sans, Medium';text-align:center;letter-spacing:0px;word-spacing:0px;writing-mode:lr-tb;text-anchor:middle;fill:#000000;fill-opacity:1;stroke:none;stroke-width:1px;stroke-linecap:butt;stroke-linejoin:miter;stroke-opacity:1"
         x="592.98279"
         y="-1054.9131"
         id="text5393"
         sodipodi:linespacing="100%"><tspan
           sodipodi:role="line"
           x="592.98279"
           y="-1054.9131"
           id="tspan5397">http://boldport.com/tap</tspan></text>
      <text
         sodipodi:linespacing="100%"
         id="text5905"
         y="-1097.5222"
         x="592.92822"
         style="font-style:normal;font-variant:normal;font-weight:normal;font-stretch:normal;font-size:15.43272018px;line-height:100%;font-family:'Alegreya Sans';-inkscape-font-specification:'Alegreya Sans, Normal';text-align:center;letter-spacing:0px;word-spacing:0px;writing-mode:lr-tb;text-anchor:middle;fill:#000000;fill-opacity:1;stroke:none;stroke-width:1px;stroke-linecap:butt;stroke-linejoin:miter;stroke-opacity:1"
         xml:space="preserve"><tspan
           id="tspan5907"
           y="-1097.5222"
           x="592.92822"
           sodipodi:role="line">Elektor, December 1974</tspan><tspan
           id="tspan5909"
           y="-1082.0895"
           x="592.92822"
           sodipodi:role="line">Boldport, July 2016</tspan></text>
      <g
         transform="matrix(0,0.73295046,0.73295046,0,176.53137,-2632.6491)"
         id="g5899">
        <path
           inkscape:connector-curvature="0"
           d="m 1959.0847,534.92783 c -0.048,-5.41248 3.5234,-8.76713 9.3177,-8.76713 l 2.0424,0 0.7393,-1.34393 c 1.4839,-2.69976 3.671,-4.0929 6.4816,-4.12666 3.1477,-0.0383 5.4558,1.30595 6.8495,3.98706 0.3424,0.66192 0.7422,1.27636 0.8859,1.36445 0.1447,0.088 4.5901,0.21281 9.881,0.27928 5.2908,0.066 10.3078,0.18843 11.1498,0.27021 4.4778,0.43519 7.5464,3.77521 7.5286,8.19942 0,3.34519 -1.7526,6.01047 -4.8313,7.40829 -1.4323,0.65021 -1.8312,0.69071 -7.3622,0.73901 -6.1256,0.0526 -7.1369,0.30703 -3.831,0.9623 3.8088,0.75456 7.7812,2.83352 10.8479,5.67723 2.6842,2.48934 4.8785,6.88544 5.4529,10.92636 0.048,0.30033 0.058,1.50882 0.048,2.68599 -0.087,4.60991 -1.9324,8.45566 -5.07,10.55777 -4.1411,2.77437 -9.9683,1.26278 -11.9103,-3.0899 -0.3762,-0.83982 -0.667,-2.31469 -0.8049,-4.05784 -0.3038,-3.85221 -1.1796,-5.44252 -3.3937,-6.17794 -2.9596,-0.98301 -5.8392,0.50922 -6.7463,3.49754 -1.1097,3.65723 1.6971,6.07747 7.0482,6.07747 l 2.2247,0 0.5874,1.14479 c 1.3233,2.57236 3.8663,4.57773 6.3952,5.04625 2.4393,0.45193 4.7961,-0.043 7.1813,-1.50035 1.1656,-0.71319 2.283,-1.29544 2.4856,-1.29544 0.2025,0 0.6337,0.47584 0.9587,1.05905 1.7921,3.21247 1.2631,7.33397 -1.2707,9.897 -2.4321,2.46075 -3.9507,2.72612 -14.3294,2.5036 -4.3138,-0.0933 -10.2186,-0.18412 -13.1208,-0.20086 -8.0851,-0.0507 -9.9123,-0.54241 -12.152,-3.2723 -2.5328,-3.08723 -2.3225,-8.35017 0.4389,-10.95988 0.4832,-0.45671 0.8787,-0.98535 0.8787,-1.17449 0,-0.18938 -0.5131,-1.40643 -1.1396,-2.70459 -1.4096,-2.92147 -1.7159,-4.44617 -1.5842,-7.87552 0.1061,-2.7165 0.4533,-3.92987 1.9165,-6.64518 0.6279,-1.1665 2.4826,-3.60433 2.8699,-3.77114 0.5763,-0.2482 0.1013,-0.92079 -0.993,-1.4017 -1.5784,-0.69477 -3.085,-2.37958 -3.9246,-4.38916 l -0.6723,-1.61016 -1.3025,-0.01 c -1.7082,-0.0144 -4.4797,-0.61798 -5.6873,-1.2414 -1.5023,-0.77526 -3.4086,-2.88833 -3.7544,-4.16205 -0.1688,-0.62208 -0.3135,-1.75018 -0.3183,-2.50546 z m 25.9938,8.98679 c 4e-4,0.32663 0.6009,0.3099 2.1788,0.043 3.4756,-0.58784 3.5388,-1.21853 0.1061,-1.05536 -1.3137,0.0627 -1.877,0.2152 -2.1002,0.56766 -0.1206,0.18842 -0.1833,0.3362 -0.1833,0.44476 z"
           style="fill:#000000;fill-opacity:1;stroke:none;stroke-opacity:0.6"
           pcbmode:style="fill"
           pcbmode:gerber-lp="dc"
           pcbmode:id="41a729dbe"
           id="path478" />
        <path
           inkscape:connector-curvature="0"
           d="m 2040.2884,664.17404 c -0.9862,-4.42279 -5.0063,-7.01332 -9.6784,-6.23658 -5.1655,0.85876 -8.0649,6.10463 -6.1619,11.14878 0.6492,1.72015 2.2999,3.42505 4.2912,4.43264 1.7105,0.8654 5.586,0.71409 7.2647,-0.28359 2.4089,-1.43121 3.5485,-2.93587 4.2463,-5.60722 0.246,-0.93351 0.4292,-1.74263 0.4147,-1.79796 0,-0.056 -0.1832,-0.80047 -0.3761,-1.65603 z"
           style="fill:#000000;fill-opacity:1;stroke:none;stroke-opacity:0.6"
           pcbmode:style="fill"
           pcbmode:id="cb6507656"
           id="path688" />
        <path
           inkscape:connector-curvature="0"
           d="m 2021.176,481.07234 c 0,-1.8455 0.1254,-3.67326 0.381,-4.68515 1.3985,-5.57168 5.2981,-9.5906 10.1867,-10.49819 2.8039,-0.52055 6.852,0.0933 7.9795,1.21175 0.3424,0.3405 0.3713,0.66086 0.135,1.67146 -0.5608,2.4135 -0.381,4.76683 0.5069,6.62466 1.2191,2.55156 3.9053,4.66654 5.9279,4.66654 0.4726,0 0.9211,0.34337 1.4622,1.11868 0.7003,1.00333 2.1152,1.99169 2.8531,1.99169 0.6708,0 1.779,-1.20581 1.7698,-1.92837 0,-1.51303 -1.2138,-2.31407 -3.4669,-2.31742 -4.1744,-0.01 -7.1162,-2.18848 -7.7952,-5.77589 -0.8406,-4.43962 1.4771,-8.0595 5.9915,-9.36091 4.2063,-1.2126 9.5107,0.7151 12.8276,4.66276 4.3278,5.15017 5.6159,15.42575 2.6693,21.29987 -1.5215,3.03347 -3.8059,5.2945 -6.6768,6.60979 -1.1632,0.53308 -2.1138,1.0609 -2.1133,1.17257 0,0.11191 0.6718,0.64868 1.494,1.19314 3.4106,2.25797 6.7719,6.61883 8.0451,10.43865 0.7282,2.18414 1.3624,6.54771 1.1767,8.08585 -0.058,0.46676 -0.1881,1.73861 -0.2942,2.8275 -0.6288,6.43681 -5.0893,12.92809 -10.0213,14.58765 -1.7583,0.59143 -1.781,0.82643 -0.077,0.82643 4.7681,0 7.585,1.4971 9.3009,4.94759 2.2883,4.60308 -0.7422,10.48217 -5.9053,11.45308 -0.8329,0.15782 -5.0589,0.28503 -9.391,0.28503 -4.3326,0 -8.306,0.12051 -8.8297,0.26972 -2.2454,0.63868 -3.0807,3.17422 -1.6348,4.96247 l 0.6848,0.84695 9.2241,0.004 c 9.2787,0.004 11.0722,0.1339 12.6458,0.90845 1.5437,0.76048 3.2389,2.64204 3.752,4.16205 1.6112,4.77433 -0.8772,9.60567 -5.6781,11.02315 -0.8083,0.23863 -0.559,0.80979 0.7735,1.78131 1.5076,1.09927 3.6599,3.8117 4.4165,5.56184 0.6328,1.46358 1.5886,4.64234 1.8471,6.14633 0.096,0.56254 0.1832,2.34415 0.1929,3.95918 0.048,6.53748 -2.7397,11.61625 -7.7017,14.11674 -0.9558,0.48158 -1.7361,0.96741 -1.7361,1.07774 0,0.10999 0.7779,0.76149 1.7289,1.44813 2.7026,1.95176 4.8838,4.45062 6.089,6.97277 1.4882,3.11453 1.5061,3.1623 1.847,5.05735 0.1688,0.93336 0.3666,1.95242 0.4389,2.26347 0.072,0.31133 0.092,2.02894 0.048,3.81767 -0.1977,7.19605 -3.2967,12.86339 -9.0795,16.60172 -1.059,0.68445 -1.9242,1.36545 -1.9242,1.51342 0,0.14729 0.4823,0.27163 1.0702,0.27354 2.4908,0.01 5.9727,1.31835 7.2493,2.7232 0.2604,0.28837 0.8077,1.17836 1.2124,1.97868 1.0879,2.15267 1.0508,5.15219 -0.092,7.39155 -0.8844,1.73594 -1.2765,2.15367 -2.9769,3.16437 -1.8982,1.12839 -4.5188,1.42188 -12.6699,1.42207 l -7.4866,0.002 -1.9503,-1.97678 c -2.6895,-2.72573 -3.9362,-3.25824 -7.6004,-3.2481 -3.0237,0.01 -3.6242,0.20564 -6.1117,1.98978 -0.5382,0.38641 -1.1164,0.66288 -1.2837,0.61424 -0.1688,-0.0493 -0.6897,-0.84676 -1.1599,-1.7739 -0.7127,-1.40409 -0.854,-2.01795 -0.8449,-3.66689 0.048,-4.82192 3.1868,-7.83052 8.6681,-8.24969 1.3788,-0.10521 2.2999,-0.30081 2.2995,-0.4877 0,-0.17121 -0.6082,-0.68665 -1.3533,-1.14465 -2.3466,-1.44374 -5.2252,-4.56071 -6.7743,-7.33388 -1.6189,-2.89827 -2.1764,-5.1133 -2.3461,-9.3181 -0.164,-4.00027 -0.048,-5.01474 1.0923,-8.95886 1.0238,-3.56972 4.28,-7.74884 7.8815,-10.12039 0.8353,-0.54987 1.4724,-1.13939 1.4155,-1.30849 -0.058,-0.1693 -0.6964,-0.39072 -1.4188,-0.4933 -1.6238,-0.23003 -2.8227,-0.87641 -4.4807,-2.41607 -1.2606,-1.17057 -1.2746,-1.20362 -0.9009,-2.12197 1.7,-4.18008 1.7516,-4.61785 0.9101,-7.83085 -0.5735,-2.19121 -1.5447,-3.50118 -3.643,-4.9178 -0.722,-0.48732 -0.9303,-0.82945 -0.9313,-1.52996 0,-1.22853 1.3171,-4.77476 2.3125,-6.21333 2.6061,-3.76541 7.7966,-6.17053 11.7579,-5.45017 2.0949,0.38115 4.1233,1.12552 4.3003,1.58032 0.072,0.18029 -0.053,1.00825 -0.2797,1.83904 -0.7996,2.97948 -0.2894,5.48049 1.6334,8.03004 0.9973,1.32106 3.465,2.78809 5.2479,3.11969 0.5744,0.10665 1.0239,0.38737 1.1247,0.70171 0.27,0.8503 1.8166,1.9619 2.7252,1.9619 1.7154,0 2.6317,-2.17787 1.4212,-3.37842 -0.5681,-0.56307 -1.1839,-0.7117 -4.1242,-0.99773 -2.0675,-0.20134 -3.2558,-0.73949 -4.6982,-2.12756 -1.4709,-1.41547 -2.1692,-3.46345 -1.9146,-5.61397 0.1881,-1.59758 1.3123,-4.26788 2.0496,-4.87495 0.2219,-0.18125 0.4003,-0.50582 0.4003,-0.72222 0,-0.32568 -1.0344,-0.38546 -5.9188,-0.35198 -3.5865,0.0239 -6.4786,-0.088 -7.3428,-0.28503 -4.079,-0.92805 -7.1452,-3.23098 -8.8148,-6.62092 -1.2524,-2.54348 -1.5914,-3.82906 -1.5933,-6.04768 0,-2.57876 0.706,-5.4713 1.9951,-8.14916 0.6279,-1.30428 1.1415,-2.442 1.1415,-2.52774 0,-0.0866 -0.4678,-0.76001 -1.0403,-1.50031 -2.5911,-3.35384 -2.8549,-6.76483 -0.7769,-10.02919 1.6064,-2.52373 3.6985,-3.57608 7.5908,-3.81586 1.5292,-0.0947 2.7816,-0.27164 2.7816,-0.39263 0,-0.12195 -0.5618,-0.49765 -1.248,-0.83757 -0.6868,-0.34003 -2.1157,-1.30448 -3.1762,-2.14248 -3.3478,-2.64582 -5.3386,-5.81473 -6.5978,-10.50565 -0.679,-2.53028 -0.7258,-3.07915 -0.6062,-7.13097 0.1109,-3.84981 0.2219,-4.64807 0.8932,-6.50371 0.4195,-1.16363 1.0826,-2.59254 1.4718,-3.17551 0.3906,-0.5831 0.7075,-1.19381 0.7075,-1.35698 0,-0.41032 4.7584,-5.07217 6.061,-5.93782 0.5855,-0.3888 1.0653,-0.7976 1.0663,-0.90845 0,-0.10999 -0.5445,-0.34528 -1.211,-0.52122 -1.8649,-0.49163 -3.8243,-1.6554 -5.1037,-3.03223 -1.3301,-1.43087 -3.1091,-5.06902 -3.6941,-7.55726 -0.2556,-1.08042 -0.381,-2.94385 -0.381,-4.78935 z m 13.7854,1.66587 c -0.096,0.81471 0.3327,2.03071 1.2895,3.63528 1.8842,3.16092 2.0593,5.51764 0.5705,7.69312 -0.3954,0.57833 -0.6635,1.10467 -0.597,1.17076 0.067,0.066 0.9394,-0.01 1.9392,-0.17121 0.9997,-0.16116 2.3553,-0.29507 3.0126,-0.29602 0.6574,-0.001 1.2539,-0.0985 1.3253,-0.21377 0.072,-0.11717 -0.3714,-1.03571 -0.9877,-2.04196 -1.0908,-1.78576 -1.7959,-3.78391 -2.5434,-7.22029 -0.679,-3.12219 -1.7332,-4.28018 -3.2678,-3.58693 -0.4389,0.19799 -0.6838,0.54241 -0.7412,1.0313 z m 0.5309,32.91306 c 0.048,2.24439 2.2898,3.52409 3.3599,1.90417 0.4244,-0.64121 0.5021,-2.71157 0.1833,-4.89915 -0.1157,-0.81237 -0.9476,-0.83269 -2.215,-0.056 -1.075,0.65881 -1.3542,1.29902 -1.3291,3.05083 z m 0.8054,77.86742 c 0.048,0.47249 0.1881,0.93049 0.4148,1.2248 0.3182,0.41701 1.4361,2.39221 2.0346,3.59247 0.8502,1.70452 0.5589,4.1391 -0.6568,5.47624 -0.6106,0.67119 -0.6945,1.26257 -0.1736,1.23221 0.1977,-0.01 1.5649,-0.23434 3.0425,-0.49512 1.4777,-0.26063 2.7272,-0.60003 2.7783,-0.75575 0.053,-0.1559 -0.1688,-0.66512 -0.4847,-1.13178 -1.2124,-1.78189 -2.0631,-4.12652 -2.5791,-7.11049 -0.1832,-1.06636 -0.5131,-2.28762 -0.7316,-2.71392 -0.8883,-1.73211 -2.8101,-2.08141 -3.4766,-0.63103 -0.1639,0.3515 -0.2122,0.83983 -0.1639,1.31222 z m 2.1866,32.11077 c -0.048,1.80428 0.7378,3.61429 2.4383,4.66281 0.842,0.51922 1.4622,0.65154 3.0749,0.65154 1.7356,0 2.1798,-0.10999 3.1438,-0.77253 0.6173,-0.42419 1.3595,-1.17043 1.6503,-1.65841 0.7952,-1.33532 0.9013,-4.07593 0.2122,-5.53209 -1.0132,-2.14114 -3.9979,-3.33825 -6.5939,-2.64501 -2.4871,0.66408 -3.8769,2.97403 -3.9251,5.29379 z m 3.6584,-98.28681 c 0,0.31133 0.048,0.66761 0.067,1.11686 0.1206,1.43422 0.4003,2.39403 1.0359,3.55895 1.059,1.93847 1.0716,2.20044 0.1398,2.80512 -1.1091,0.72084 -0.3954,0.94962 2.87,0.91586 1.5688,-0.0143 3.2369,-0.11717 3.7071,-0.22333 l 0.856,-0.19177 -1.141,-0.22525 c -2.6115,-0.51238 -4.8641,-2.73884 -5.7066,-5.63998 -0.7976,-2.74739 -0.164,-4.31107 3.4708,-8.58656 1.7125,-2.01311 2.2498,-3.43944 1.9768,-5.2473 -0.217,-1.42322 -1.5297,-2.95117 -2.2902,-2.66174 -0.3666,0.13916 -0.4437,0.7403 -0.4437,3.44915 l 0,3.2779 -1.4154,1.48357 c -0.7784,0.81605 -1.822,2.34711 -2.3202,3.40262 -0.6211,1.31662 -0.8126,1.83263 -0.8054,2.76599 z"
           style="fill:#000000;fill-opacity:1;stroke:none;stroke-opacity:0.6"
           pcbmode:style="fill"
           pcbmode:gerber-lp="dccccc"
           pcbmode:id="7b50d28fc"
           id="path780" />
        <path
           inkscape:connector-curvature="0"
           d="m 2026.6771,594.07559 c -0.4629,-1.59797 -1.8576,-3.51338 -3.274,-4.49873 -2.2363,-1.55593 -3.3951,-1.63742 -27.198,-1.91627 -8.2345,-0.0966 -15.0363,-0.18986 -15.1154,-0.20756 -0.6621,-0.1492 -3.8118,0.54748 -4.8448,1.07043 -4.6716,2.36447 -5.8474,8.569 -2.4315,12.82933 0.5454,0.67986 0.9481,1.31614 0.8946,1.41409 -0.053,0.098 -0.6236,1.0687 -1.2674,2.15759 -1.646,2.78297 -2.1639,4.98896 -1.958,8.34304 0.2797,4.58729 1.5693,7.30652 5.1761,10.93147 2.1186,2.12899 3.0059,2.79717 4.9996,3.7643 4.1951,2.03469 5.9964,2.41522 11.4078,2.40967 3.6589,-0.003 5.1182,-0.1186 6.5597,-0.51716 2.6143,-0.72256 5.5493,-2.14626 7.6129,-3.69286 1.8514,-1.38797 4.5588,-4.70475 5.2161,-6.39075 0.2122,-0.54442 0.489,-1.12581 0.6149,-1.29204 0.1254,-0.16595 0.489,-1.3753 0.8059,-2.68676 1.3185,-5.45409 0.2893,-10.08447 -2.9852,-13.42224 -4.0409,-4.11954 -10.6111,-3.44322 -12.9274,1.33073 -0.328,0.67239 -0.8001,2.61363 -1.0528,4.31393 -0.4774,3.19923 -0.844,4.24546 -1.7467,4.96945 -1.1001,0.88182 -1.8529,1.13059 -3.4226,1.13059 -2.1668,0 -3.9285,-0.994 -4.6833,-2.64318 -0.6553,-1.43035 -0.6819,-2.28963 -0.1205,-3.86479 0.8087,-2.27327 2.5188,-3.10774 6.3687,-3.10774 l 2.311,0 0.9621,-1.48472 c 2.2907,-3.53475 4.9065,-4.92435 8.7747,-4.66137 3.4486,0.23433 6.1835,1.94636 8.7081,5.45113 l 0.6024,0.83642 2.9133,-0.0612 c 2.4137,-0.0493 3.166,-0.17838 4.3885,-0.75001 1.4801,-0.69219 2.9819,-1.93665 3.7617,-3.11697 1.0985,-1.66301 1.5273,-4.65392 0.951,-6.63906 z"
           style="fill:#000000;fill-opacity:1;stroke:none;stroke-opacity:0.6"
           pcbmode:style="fill"
           pcbmode:id="40644e008"
           id="path848" />
      </g>
    </g>
    <g
       id="g5487"
       transform="translate(0,1.1560502)">
      <rect
         transform="matrix(0,1,-1,0,0,0)"
         ry="4.7806015"
         y="-470.9379"
         x="-1178.5537"
         height="102.51735"
         width="35.994804"
         id="rect4545"
         style="opacity:1;fill:#cccccc;fill-opacity:1;stroke:#cccccc;stroke-width:1.88888359;stroke-linecap:round;stroke-linejoin:round;stroke-miterlimit:4;stroke-dasharray:none;stroke-opacity:1" />
      <rect
         transform="matrix(0,1,-1,0,0,0)"
         style="opacity:0.95;fill:#cccccc;fill-opacity:1;stroke:#000000;stroke-width:1.88890874;stroke-linecap:round;stroke-linejoin:round;stroke-miterlimit:4;stroke-dasharray:none;stroke-opacity:1"
         id="rect4549"
         width="35.994804"
         height="102.51735"
         x="-1118.9042"
         y="-470.9379"
         ry="4.7806015" />
      <g
         transform="translate(142.52242,-4)"
         style="fill:#000000"
         id="g5469">
        <circle
           style="opacity:1;fill:#000000;fill-opacity:1;stroke:none;stroke-width:1.77165353;stroke-linecap:round;stroke-linejoin:round;stroke-miterlimit:4;stroke-dasharray:none;stroke-opacity:1"
           id="path4529"
           cx="-1096.9069"
           cy="-238.75999"
           r="6.8694897"
           transform="matrix(0,1,-1,0,0,0)" />
        <circle
           r="6.8694897"
           cy="-315.55362"
           cx="-1096.9069"
           id="circle4531"
           style="opacity:1;fill:#000000;fill-opacity:1;stroke:none;stroke-width:1.77165353;stroke-linecap:round;stroke-linejoin:round;stroke-miterlimit:4;stroke-dasharray:none;stroke-opacity:1"
           transform="matrix(0,1,-1,0,0,0)" />
      </g>
      <path
         style="fill:#000000;fill-opacity:1;fill-rule:evenodd;stroke:#000000;stroke-width:0.84981662;stroke-linecap:round;stroke-linejoin:round;stroke-miterlimit:4;stroke-dasharray:none;stroke-opacity:1"
         d="m 459.24979,-1160.5562 c 0,-0.3179 -0.0651,-0.6351 -0.19712,-0.9199 -0.26414,-0.5696 -0.75306,-0.9208 -1.28537,-0.9206 l -12.96934,0 c -0.92648,-3.4228 -4.39718,-6.0669 -8.71696,-6.56 l 10e-4,16.8062 c 4.31931,-0.4934 7.78952,-3.1366 8.71596,-6.5591 l 12.96934,0 c 0.53231,3e-4 1.02123,-0.3511 1.28537,-0.9207 0.13206,-0.2848 0.19712,-0.6028 0.19712,-0.9207 z m -27.27231,-8.2094 c -1.45454,0.3107 -2.81597,0.878 -3.97981,1.6738 -0.42289,0.033 -0.84951,0.064 -1.27631,0.094 l 10e-4,12.8825 c 0.4244,0.03 0.84868,0.061 1.26928,0.093 1.16554,0.7965 2.52964,1.3638 3.98584,1.6747 l 0,-16.4187 z m -9.53365,2.0142 c -1.00318,0.041 -1.94063,0.065 -2.76283,0.065 -0.58041,0 -1.21884,-0.013 -1.89687,-0.034 l 10e-4,12.3275 c 0.67771,-0.022 1.31568,-0.033 1.89586,-0.033 0.82214,0 1.75968,0.023 2.76284,0.065 l 0,-12.3904 z m -8.84469,-0.1807 c -0.74305,-0.049 -1.49249,-0.1022 -2.23078,-0.1588 -1.84996,-1.2643 -4.19934,-1.9513 -6.62498,-1.9513 -4.98372,0 -9.15129,2.8411 -10.18035,6.6428 l -12.97336,0 c -0.52827,0 -1.01621,0.3511 -1.28034,0.9207 -0.26413,0.5696 -0.26413,1.2709 0,1.8405 0.26413,0.5696 0.75207,0.9211 1.28034,0.9207 l 12.97336,0 c 1.0291,3.8017 5.19666,6.642 10.18035,6.642 2.42385,0 4.77164,-0.6858 6.61994,-1.9495 0.73984,-0.057 1.49004,-0.1109 2.23481,-0.1597 l 10e-4,-12.7526 z"
         id="path4527"
         inkscape:connector-curvature="0" />
      <text
         sodipodi:linespacing="100%"
         id="text5401"
         y="-1060.1298"
         x="419.4631"
         style="font-style:normal;font-variant:normal;font-weight:bold;font-stretch:normal;font-size:15.43624973px;line-height:100%;font-family:'Alegreya Sans';-inkscape-font-specification:'Alegreya Sans, Bold';text-align:center;letter-spacing:0px;word-spacing:0px;writing-mode:lr-tb;text-anchor:middle;fill:#000000;fill-opacity:1;stroke:none;stroke-width:1px;stroke-linecap:butt;stroke-linejoin:miter;stroke-opacity:1"
         xml:space="preserve"><tspan
           id="tspan5409"
           y="-1060.1298"
           x="420.62384"
           sodipodi:role="line">Check twice, </tspan><tspan
           id="tspan5454"
           y="-1044.6935"
           x="420.62384"
           sodipodi:role="line">solder once </tspan></text>
      <text
         xml:space="preserve"
         style="font-style:normal;font-variant:normal;font-weight:500;font-stretch:normal;font-size:15.43646431px;line-height:100%;font-family:'Alegreya Sans';-inkscape-font-specification:'Alegreya Sans, Medium';text-align:center;letter-spacing:0px;word-spacing:0px;writing-mode:lr-tb;text-anchor:middle;fill:#000000;fill-opacity:1;stroke:none;stroke-width:1px;stroke-linecap:butt;stroke-linejoin:miter;stroke-opacity:1"
         x="419.68646"
         y="-1183.9237"
         id="text5411"
         sodipodi:linespacing="100%"><tspan
           sodipodi:role="line"
           x="419.68646"
           y="-1183.9237"
           id="tspan5415">Component side</tspan></text>
      <text
         sodipodi:linespacing="100%"
         id="text5419"
         y="-1123.0859"
         x="419.65558"
         style="font-style:normal;font-variant:normal;font-weight:500;font-stretch:normal;font-size:15.43646431px;line-height:100%;font-family:'Alegreya Sans';-inkscape-font-specification:'Alegreya Sans, Medium';text-align:center;letter-spacing:0px;word-spacing:0px;writing-mode:lr-tb;text-anchor:middle;fill:#000000;fill-opacity:1;stroke:none;stroke-width:1px;stroke-linecap:butt;stroke-linejoin:miter;stroke-opacity:1"
         xml:space="preserve"><tspan
           id="tspan5421"
           y="-1123.0859"
           x="419.65558"
           sodipodi:role="line">Solder side</tspan></text>
    </g>
    <path
       style="fill:none;fill-rule:evenodd;stroke:#000000;stroke-width:1.65264571;stroke-linecap:butt;stroke-linejoin:miter;stroke-miterlimit:4;stroke-dasharray:6.61058283, 6.61058283;stroke-dashoffset:1.9831748;stroke-opacity:1"
       d="m 483.29339,-1199.0533 0,161.1194"
       id="path5473"
       inkscape:connector-curvature="0"
       sodipodi:nodetypes="cc" />
    <rect
       ry="0"
       y="-282.8833"
       x="272.20279"
       height="288.77954"
       width="350.78741"
       id="rect10196"
       style="opacity:1;fill:none;fill-opacity:0.66666667;stroke:#cccccc;stroke-width:0.5;stroke-linecap:round;stroke-linejoin:round;stroke-miterlimit:4;stroke-dasharray:none;stroke-dashoffset:0;stroke-opacity:1"
       inkscape:export-xdpi="300.01074"
       inkscape:export-ydpi="300.01074" />
    <rect
       style="opacity:1;fill:none;fill-opacity:0.66666667;stroke:#cccccc;stroke-width:0.4;stroke-linecap:round;stroke-linejoin:round;stroke-miterlimit:4;stroke-dasharray:none;stroke-dashoffset:0;stroke-opacity:1"
       id="rect10198"
       width="350.78741"
       height="175.39371"
       x="272.20279"
       y="-226.19043"
       ry="0"
       inkscape:export-xdpi="300.01074"
       inkscape:export-ydpi="300.01074" />
    <g
       id="g4230"
       transform="translate(0,2.8251646)">
      <text
         inkscape:export-ydpi="300.01074"
         inkscape:export-xdpi="300.01074"
         sodipodi:linespacing="100%"
         id="text10202"
         y="-82.820152"
         x="514.44971"
         style="font-style:normal;font-variant:normal;font-weight:500;font-stretch:normal;font-size:16.81698227px;line-height:100%;font-family:'Alegreya Sans';-inkscape-font-specification:'Alegreya Sans, Medium';text-align:center;letter-spacing:0px;word-spacing:0px;writing-mode:lr-tb;text-anchor:middle;fill:#000000;fill-opacity:1;stroke:none;stroke-width:1px;stroke-linecap:butt;stroke-linejoin:miter;stroke-opacity:1"
         xml:space="preserve"><tspan
           id="tspan10204"
           y="-82.820152"
           x="514.44971"
           sodipodi:role="line">http://boldport.com/tap</tspan></text>
      <text
         inkscape:export-ydpi="300.01074"
         inkscape:export-xdpi="300.01074"
         xml:space="preserve"
         style="font-style:normal;font-variant:normal;font-weight:normal;font-stretch:normal;font-size:12.42416954px;line-height:100%;font-family:'Alegreya Sans';-inkscape-font-specification:'Alegreya Sans, Normal';text-align:center;letter-spacing:0px;word-spacing:0px;writing-mode:lr-tb;text-anchor:middle;fill:#000000;fill-opacity:1;stroke:none;stroke-width:1px;stroke-linecap:butt;stroke-linejoin:miter;stroke-opacity:1"
         x="514.40576"
         y="-117.1228"
         id="text10206"
         sodipodi:linespacing="100%"><tspan
           sodipodi:role="line"
           x="514.40576"
           y="-117.1228"
           id="tspan10208">Elektor, December 1974</tspan><tspan
           sodipodi:role="line"
           x="514.40576"
           y="-104.69863"
           id="tspan10210">Boldport, July 2016</tspan></text>
      <g
         transform="matrix(1.1144086,0,0,1.1144086,-58.896066,16.919981)"
         id="g4224">
        <path
           id="path10214"
           pcbmode:id="41a729dbe"
           pcbmode:gerber-lp="dc"
           pcbmode:style="fill"
           style="fill:#000000;fill-opacity:1;stroke:#ffffff;stroke-width:0.5635376;stroke-miterlimit:4;stroke-dasharray:none;stroke-opacity:1"
           d="m 494.82583,-196.99609 c -3.19371,-0.0283 -5.17317,2.07904 -5.17317,5.49804 l 0,1.20515 -0.79301,0.43624 c -1.59303,0.8756 -2.41507,2.16612 -2.43499,3.82456 -0.0226,1.85735 0.77059,3.21928 2.35262,4.04165 0.39058,0.20204 0.75314,0.43794 0.80512,0.52274 0.0519,0.0854 0.12557,2.70846 0.16479,5.83042 0.039,3.12192 0.11119,6.08227 0.15944,6.5791 0.25679,2.6422 2.22762,4.45287 4.83818,4.44236 1.97388,0 3.54657,-1.03414 4.37137,-2.85077 0.38368,-0.84515 0.0841,-1.69151 0.11261,-4.95516 0.0311,-3.6145 0.50463,-3.60025 0.89128,-1.64955 0.44524,2.24743 1.67196,4.5914 3.34993,6.40096 1.46887,1.58385 4.06286,2.87863 6.44726,3.21756 0.17722,0.0283 0.8903,0.0342 1.58491,0.0283 2.72014,-0.0514 4.98938,-1.14024 6.22976,-2.99163 1.63706,-2.44351 0.74512,-5.88194 -1.82324,-7.02784 -0.49555,-0.22198 -1.36582,-0.39358 -2.39439,-0.47495 -2.27305,-0.17926 -3.21144,-0.69604 -3.64538,-2.00249 -0.58004,-1.74636 0.30047,-3.44551 2.06377,-3.98076 2.15801,-0.65479 3.5861,1.0014 3.5861,4.15889 l 0,1.31272 0.67551,0.3466 c 1.51785,0.78084 2.70115,2.28137 2.97761,3.77359 0.26666,1.43933 -0.0254,2.83 -0.8853,4.23743 -0.42084,0.68777 -0.7644,1.34711 -0.7644,1.46666 0,0.11949 0.28078,0.37392 0.62491,0.5657 1.89557,1.05745 4.32751,0.74531 5.83987,-0.7498 1.452,-1.4351 1.60859,-2.33117 1.47728,-8.45527 -0.0551,-2.54543 -0.10864,-6.02963 -0.11852,-7.74212 -0.0299,-4.77073 -0.32006,-5.84889 -1.93086,-7.17046 -1.82167,-1.49452 -4.92714,-1.37043 -6.46704,0.25898 -0.26949,0.28511 -0.58143,0.51848 -0.69303,0.51848 -0.11174,0 -0.82988,-0.30276 -1.59588,-0.67243 -1.72386,-0.83176 -2.62353,-1.0125 -4.64706,-0.93478 -1.60291,0.0626 -2.31888,0.26747 -3.92109,1.13085 -0.68831,0.37051 -2.41431,1.86023 -2.51273,2.08877 -0.14646,0.34005 -0.25581,-0.3356 -0.53958,-0.98127 -0.40996,-0.93136 -1.40411,-1.82035 -2.58989,-2.31577 l -0.9501,-0.3967 -0.006,-0.76856 c -0.008,-1.00795 -0.36465,-2.64331 -0.7325,-3.35587 -0.45746,-0.88645 -1.70431,-2.0113 -2.45588,-2.21534 -0.36707,-0.0996 -1.03273,-0.18499 -1.47839,-0.18782 z m 5.40003,16.62365 c -0.34686,2.05083 -1.19931,2.08813 -1.10304,0.0626 0.037,-0.77517 0.15841,-1.38436 0.44894,-1.64948 0.99936,-1.12658 0.8704,0.29109 0.6541,1.58684 z"
           inkscape:connector-curvature="0"
           sodipodi:nodetypes="csccccccccccccccsccscsccscsccccccscccccccccccccccc"
           inkscape:export-xdpi="300.01074"
           inkscape:export-ydpi="300.01074" />
        <path
           id="path10216"
           pcbmode:id="cb6507656"
           pcbmode:style="fill"
           style="fill:#000000;fill-opacity:1;stroke:#ffffff;stroke-width:0.5635376;stroke-miterlimit:4;stroke-dasharray:none;stroke-opacity:1"
           d="m 571.08944,-149.08066 c -2.60974,-0.58192 -4.13832,-2.95405 -3.67999,-5.71089 0.50672,-3.04797 3.60213,-4.75881 6.5785,-3.63591 1.015,0.38307 2.021,1.35709 2.61554,2.53208 0.51065,1.0093 0.42137,3.2961 -0.16733,4.28664 -0.84451,1.42141 -1.73235,2.09385 -3.30862,2.5056 -0.55084,0.14515 -1.02827,0.25325 -1.06091,0.24469 -0.0331,0 -0.47233,-0.1081 -0.97717,-0.22192 z"
           inkscape:connector-curvature="0"
           sodipodi:nodetypes="csccccccc"
           inkscape:export-xdpi="300.01074"
           inkscape:export-ydpi="300.01074" />
        <path
           id="path10218"
           pcbmode:id="7b50d28fc"
           pcbmode:gerber-lp="dccccc"
           pcbmode:style="fill"
           style="fill:#000000;fill-opacity:1;stroke:#ffffff;stroke-width:0.5635376;stroke-miterlimit:4;stroke-dasharray:none;stroke-opacity:1"
           d="m 463.04762,-160.35821 c -1.08897,0 -2.16746,0.074 -2.76454,0.22481 -3.28766,0.8252 -5.65907,3.12622 -6.19461,6.01081 -0.30716,1.65448 0.0551,4.04313 0.71501,4.70842 0.20092,0.20204 0.38995,0.21909 0.98627,0.0797 1.42412,-0.33091 2.81274,-0.22482 3.90897,0.29911 1.50559,0.71934 2.75357,2.30437 2.75357,3.49784 0,0.27886 0.20261,0.54351 0.66009,0.86279 0.59203,0.41322 1.17522,1.2481 1.17522,1.68352 0,0.39581 -0.7115,1.04972 -1.13786,1.04429 -0.89278,0 -1.36545,-0.71622 -1.36743,-2.04569 -0.006,-2.46317 -1.75856,-3.98338 -3.51596,-4.38404 -2.18838,-0.31631 -4.6478,0.65595 -5.41572,3.31973 -0.71552,2.48199 0.42195,5.61194 2.75133,7.56912 3.03893,2.55368 9.10218,3.31374 12.56829,1.57505 1.78994,-0.89778 3.1241,-2.24572 3.90021,-3.93974 0.31455,-0.68636 0.62599,-1.24727 0.69189,-1.24698 0.066,0 0.38276,0.3964 0.70402,0.88155 1.33235,2.01248 3.90554,3.99586 6.15949,4.74713 1.28877,0.42969 3.86356,0.80391 4.77117,0.69434 0.27542,-0.0342 1.02589,-0.111 1.6684,-0.17361 3.79814,-0.37103 7.62841,-3.00301 8.60766,-5.9132 0.34898,-1.03752 0.48765,-1.05091 0.48765,-0.0454 0,2.81349 0.88338,4.47564 2.91939,5.48813 2.71612,1.35025 6.18516,-0.43795 6.75806,-3.4845 0.0931,-0.49147 0.16818,-2.98509 0.16818,-5.5413 0,-2.55651 0.0711,-4.90108 0.15916,-5.2101 0.37686,-1.32492 1.87299,-1.81781 2.92818,-0.96463 l 0.49975,0.40407 0.002,5.44282 c 0.002,5.47503 0.079,6.53331 0.53604,7.46184 0.44873,0.91088 1.55897,1.91116 2.45588,2.21392 2.81716,0.95071 5.66797,-0.51761 6.50437,-3.35045 0.1408,-0.47694 0.47783,-0.32984 1.05109,0.45642 0.64864,0.88958 2.24915,2.15957 3.28184,2.60602 0.86361,0.37339 2.73928,0.93738 3.62673,1.08991 0.33193,0.0567 1.38321,0.10809 2.33617,0.11382 3.85754,0.0283 6.85434,-1.6166 8.32979,-4.5445 0.28417,-0.56399 0.57084,-1.02441 0.63593,-1.02441 0.0649,0 0.44934,0.45901 0.8545,1.02016 1.15167,1.59471 2.62615,2.88176 4.11438,3.5929 1.83777,0.87814 1.86597,0.8887 2.98416,1.08985 0.55075,0.0996 1.15206,0.21632 1.3356,0.25898 0.1837,0.0425 1.19721,0.0543 2.25267,0.0283 4.24614,-0.11666 7.59023,-1.94526 9.79609,-5.35749 0.40386,-0.62488 0.8057,-1.1354 0.89301,-1.1354 0.0869,0 0.16028,0.28458 0.16141,0.63148 0.006,1.46974 0.77791,3.52429 1.60686,4.27756 0.17016,0.15365 0.69531,0.4766 1.16755,0.71539 1.27022,0.64194 3.04012,0.62005 4.36149,-0.0543 1.02432,-0.52185 1.27081,-0.75321 1.86718,-1.75656 0.66583,-1.12006 0.83901,-2.66639 0.83912,-7.47606 l 8e-4,-4.41758 -1.16642,-1.1508 c -1.60835,-1.58698 -1.92258,-2.32261 -1.91659,-4.48473 0.006,-1.78418 0.12134,-2.13851 1.1741,-3.60629 0.22801,-0.31757 0.39114,-0.65875 0.36244,-0.75747 -0.0291,-0.0996 -0.49964,-0.40696 -1.04672,-0.68442 -0.8285,-0.42053 -1.19071,-0.50391 -2.1637,-0.49854 -2.84524,0.0283 -4.62051,1.88042 -4.86785,5.11474 -0.0621,0.81358 -0.17749,1.35708 -0.28777,1.35685 -0.10103,0 -0.40517,-0.35888 -0.67542,-0.79853 -0.8519,-1.38465 -2.69111,-3.0832 -4.32746,-3.99728 -1.71017,-0.95525 -3.01718,-1.28421 -5.49828,-1.38435 -2.36042,-0.0968 -2.95902,-0.0283 -5.28631,0.64453 -2.10636,0.60411 -4.57231,2.52548 -5.97168,4.6506 -0.32446,0.49287 -0.81607,1.26414 -0.91585,1.23057 -0.0999,-0.0342 -0.0868,-0.80626 -0.14732,-1.23252 -0.13574,-0.95815 -0.0499,-1.70152 -0.95842,-2.67984 -0.69071,-0.74384 -1.17743,-0.71616 -1.71931,-0.49566 -2.46653,1.00312 -2.72484,1.03356 -4.62071,0.53702 -1.29296,-0.3384 -2.06593,-0.91147 -2.90182,-2.1496 -0.28756,-0.42603 -0.48943,-0.54894 -0.90278,-0.54953 -0.72491,0 -2.81741,0.77718 -3.66626,1.36452 -2.22184,1.53778 -3.64101,4.60051 -3.21596,6.93792 0.22491,1.23613 0.66413,2.43302 0.93249,2.53746 0.10638,0.0425 0.59494,-0.0312 1.08516,-0.16504 1.75808,-0.47181 3.23384,-0.17076 4.73824,0.96381 0.77951,0.58847 1.64515,2.04458 1.84081,3.0966 0.063,0.33893 0.22858,0.60416 0.41406,0.66364 0.50173,0.15932 1.15765,1.07191 1.15765,1.60805 0,1.01219 -1.28508,1.55287 -1.99349,0.8386 -0.33225,-0.33522 -0.41995,-0.69858 -0.58872,-2.43354 -0.1188,-1.21996 -0.43635,-1.92113 -1.2554,-2.77225 -0.83522,-0.86792 -2.04366,-1.27997 -3.3126,-1.12974 -0.94268,0.111 -2.51833,0.77435 -2.87654,1.2094 -0.10695,0.13094 -0.29847,0.23621 -0.42616,0.23621 -0.19217,0 -0.22744,-0.61037 -0.20769,-3.49248 0.0141,-2.11627 -0.0519,-3.82279 -0.16819,-4.33273 -0.5476,-2.40686 -1.90648,-4.21613 -3.90676,-5.2013 -1.50082,-0.73899 -2.25939,-0.93903 -3.56852,-0.94014 -1.52164,0 -3.22842,0.41658 -4.80853,1.17723 -0.76961,0.37051 -1.44094,0.67356 -1.49153,0.67356 -0.0511,0 -0.44846,-0.27603 -0.88528,-0.61385 -1.97899,-1.52891 -3.99169,-1.68457 -5.91787,-0.45842 -1.48917,0.94789 -2.11012,2.18236 -2.25161,4.47906 -0.0559,0.90233 -0.16028,1.64133 -0.23168,1.64133 -0.072,0 -0.29364,-0.3315 -0.49421,-0.7364 -0.20064,-0.40525 -0.76973,-1.2484 -1.26421,-1.87416 -1.5612,-1.97542 -3.43107,-3.15012 -6.19901,-3.89313 -1.49303,-0.40065 -1.81689,-0.42827 -4.20773,-0.3577 -2.27163,0.0654 -2.74266,0.13094 -3.83761,0.52705 -0.68662,0.24753 -1.52977,0.6388 -1.87375,0.86845 -0.34407,0.23048 -0.70443,0.41747 -0.80071,0.41747 -0.24212,0 -2.99291,2.80777 -3.5037,3.57639 -0.22941,0.34548 -0.72221,1.05987 -0.78762,1.06046 -0.0649,0 -0.13185,-0.71663 -0.23567,-1.10991 -0.2901,-1.10041 -0.97679,-2.25658 -1.78921,-3.01151 -0.84431,-0.78485 -2.81135,-1.87051 -4.27958,-2.21569 -0.63751,-0.15082 -1.73706,-0.22482 -2.82603,-0.22482 z m 0.98297,8.13427 c 0.48073,-0.0567 1.19825,0.19632 2.14505,0.76089 1.86515,1.1118 3.25576,1.21512 4.53944,0.33663 0.34125,-0.23331 1.01123,-0.89466 1.05022,-0.85543 0.039,0.0395 -0.36503,1.05747 -0.46042,1.64742 -0.0951,0.58989 -0.17411,1.38978 -0.17468,1.77762 -5.8e-4,0.38792 -0.0581,0.73989 -0.12613,0.78201 -0.0692,0.0425 -0.61114,-0.21914 -1.20489,-0.5828 -1.05371,-0.64364 -2.23276,-1.0597 -4.26044,-1.50077 -1.84229,-0.40065 -2.52558,-1.0227 -2.11652,-1.92821 0.11683,-0.25898 0.32006,-0.40348 0.60854,-0.43736 z m 19.42083,0.31327 c 1.32433,0.0283 2.07944,1.35113 1.12358,1.98256 -0.37836,0.25042 -1.6,0.29626 -2.89082,0.10816 -0.47934,-0.0683 -0.49134,-0.55915 -0.033,-1.307 0.38873,-0.63432 0.76651,-0.79906 1.80019,-0.78425 z m 45.9468,0.47524 c 0.2788,0.0283 0.54905,0.11098 0.72271,0.24475 0.24606,0.18776 1.41156,0.84739 2.11979,1.20055 1.00578,0.50167 2.44234,0.32979 3.23134,-0.38756 0.39604,-0.36029 1.06846,-0.84107 1.05054,-0.53371 -0.006,0.11666 -0.46174,1.35467 -0.61561,2.22655 -0.15379,0.87194 -0.35406,1.60923 -0.44595,1.63938 -0.092,0.0312 -0.39246,-0.0996 -0.66782,-0.28601 -1.05143,-0.71539 -2.43491,-1.21736 -4.19564,-1.52183 -0.62923,-0.1081 -1.34985,-0.30276 -1.60139,-0.43169 -1.02206,-0.52416 -1.22817,-1.65814 -0.37236,-2.05143 0.20742,-0.0967 0.49556,-0.12521 0.7743,-0.0967 z m 18.94743,1.29023 c 1.06464,-0.0283 2.13266,0.43535 2.75136,1.43876 0.30637,0.49683 0.38445,0.86279 0.38445,1.81439 0,1.02411 -0.0649,1.28621 -0.45585,1.85504 -0.25029,0.36425 -0.69063,0.80219 -0.97856,0.97379 -0.78793,0.46921 -2.40507,0.53181 -3.26429,0.12521 -1.26342,-0.59786 -1.96979,-2.35902 -1.56073,-3.89083 0.39185,-1.46756 1.75486,-2.28762 3.12367,-2.31607 z m -57.99556,2.15869 c 0.1837,0 0.39393,0.0283 0.65902,0.0395 0.84628,0.0712 1.41263,0.2362 2.1,0.61124 1.14383,0.62489 1.29841,0.63232 1.65521,0.0825 0.42534,-0.65445 0.56033,-0.23331 0.54042,1.69349 -0.008,0.92569 -0.0692,1.90997 -0.13178,2.18742 l -0.11316,0.50509 -0.13292,-0.67325 c -0.30233,-1.54096 -1.61608,-2.87014 -3.32794,-3.36727 -1.62114,-0.47063 -2.54381,-0.0968 -5.06663,2.048 -1.18786,1.01048 -2.02949,1.32753 -3.09625,1.16643 -0.83979,-0.12804 -1.74138,-0.90261 -1.57059,-1.35136 0.0821,-0.21632 0.43682,-0.26181 2.03522,-0.26181 l 1.93417,0 0.8754,-0.83518 c 0.48152,-0.45931 1.38495,-1.07509 2.00777,-1.36907 0.77689,-0.36649 1.08137,-0.47949 1.63211,-0.47524 z"
           inkscape:connector-curvature="0"
           sodipodi:nodetypes="ccscccscscccscccccccccsccscscsccccccccsccccccsccccccccccccccccccccccccccccccccccsccsccscccccscccsccccccsccccccccccccccccccccccccccccccccccccccccsccccccccccccccccccsccccc"
           inkscape:export-xdpi="300.01074"
           inkscape:export-ydpi="300.01074" />
        <path
           id="path10220"
           pcbmode:id="40644e008"
           pcbmode:style="fill"
           style="fill:#000000;fill-opacity:1;stroke:#ffffff;stroke-width:0.5635376;stroke-miterlimit:4;stroke-dasharray:none;stroke-opacity:1"
           d="m 529.72683,-157.11221 c -0.94291,-0.27314 -2.07313,-1.09611 -2.65454,-1.93187 -0.9181,-1.31956 -0.96619,-2.00333 -1.13073,-16.04857 -0.057,-4.85889 -0.11203,-8.8724 -0.12247,-8.91906 -0.088,-0.39069 0.32305,-2.24921 0.63162,-2.85875 1.39519,-2.75654 5.05626,-3.45035 7.57013,-1.43474 0.40117,0.32182 0.77661,0.55944 0.83441,0.52787 0.0578,-0.0312 0.6306,-0.36796 1.27312,-0.74785 1.64213,-0.97124 2.94381,-1.27684 4.92293,-1.15534 2.7068,0.16503 4.31132,0.92598 6.45027,3.05422 1.25624,1.25012 1.65052,1.77368 2.22118,2.95009 1.2006,2.47538 1.42514,3.53827 1.42186,6.73134 -0.002,2.15899 -0.07,3.02007 -0.30516,3.87065 -0.42635,1.5426 -1.26643,3.27444 -2.17902,4.4921 -0.819,1.09244 -2.77611,2.68998 -3.77096,3.07784 -0.32124,0.12521 -0.6643,0.28853 -0.76239,0.36282 -0.0979,0.074 -0.81151,0.28855 -1.58536,0.47554 -3.21826,0.778 -5.95049,0.17071 -7.91999,-1.76146 -2.43078,-2.3844 -2.03172,-6.26124 0.78522,-7.628 0.39676,-0.19354 1.54221,-0.47211 2.5455,-0.62122 1.88776,-0.2817 2.50509,-0.49801 2.9323,-1.03066 0.52033,-0.64913 0.66712,-1.09334 0.66712,-2.01956 0,-1.27855 -0.58653,-2.31807 -1.55965,-2.76345 -0.844,-0.38667 -1.35103,-0.40237 -2.28047,-0.0711 -1.34138,0.47719 -1.83377,1.48626 -1.83377,3.75794 l 0,1.36364 -0.87608,0.5677 c -2.08573,1.35167 -2.90568,2.89515 -2.75051,5.17764 0.13827,2.03491 1.14847,3.64867 3.21652,5.13835 l 0.49354,0.35545 -0.0362,1.71903 c -0.0291,1.42425 -0.10525,1.86815 -0.44255,2.58951 -0.40844,0.87335 -1.14274,1.75951 -1.83921,2.21964 -0.98128,0.64818 -2.74611,0.90121 -3.91747,0.56115 z"
           inkscape:connector-curvature="0"
           sodipodi:nodetypes="cccccccccccccccccccccsccscccccccccc"
           inkscape:export-xdpi="300.01074"
           inkscape:export-ydpi="300.01074" />
      </g>
    </g>
    <g
       id="g4188"
       transform="translate(0,-5.4549826e-5)">
      <g
         inkscape:export-ydpi="300.01074"
         inkscape:export-xdpi="300.01074"
         id="g10222"
         transform="matrix(0.80505376,0,0,0.80505376,-0.933347,762.88462)">
        <rect
           transform="matrix(0,1,-1,0,0,0)"
           ry="4.7806015"
           y="-470.9379"
           x="-1178.5537"
           height="102.51735"
           width="35.994804"
           id="rect10224"
           style="opacity:1;fill:#cccccc;fill-opacity:1;stroke:#cccccc;stroke-width:1.88888359;stroke-linecap:round;stroke-linejoin:round;stroke-miterlimit:4;stroke-dasharray:none;stroke-opacity:1" />
        <rect
           transform="matrix(0,1,-1,0,0,0)"
           style="opacity:0.95;fill:#cccccc;fill-opacity:1;stroke:#000000;stroke-width:1.88890874;stroke-linecap:round;stroke-linejoin:round;stroke-miterlimit:4;stroke-dasharray:none;stroke-opacity:1"
           id="rect10226"
           width="35.994804"
           height="102.51735"
           x="-1118.9042"
           y="-470.9379"
           ry="4.7806015" />
        <g
           transform="translate(142.52242,-4)"
           style="fill:#000000"
           id="g10228">
          <circle
             style="opacity:1;fill:#000000;fill-opacity:1;stroke:none;stroke-width:1.77165353;stroke-linecap:round;stroke-linejoin:round;stroke-miterlimit:4;stroke-dasharray:none;stroke-opacity:1"
             id="circle10230"
             cx="-1096.9069"
             cy="-238.75999"
             r="6.8694897"
             transform="matrix(0,1,-1,0,0,0)" />
          <circle
             r="6.8694897"
             cy="-315.55362"
             cx="-1096.9069"
             id="circle10232"
             style="opacity:1;fill:#000000;fill-opacity:1;stroke:none;stroke-width:1.77165353;stroke-linecap:round;stroke-linejoin:round;stroke-miterlimit:4;stroke-dasharray:none;stroke-opacity:1"
             transform="matrix(0,1,-1,0,0,0)" />
        </g>
        <path
           style="fill:#000000;fill-opacity:1;fill-rule:evenodd;stroke:#000000;stroke-width:0.84981662;stroke-linecap:round;stroke-linejoin:round;stroke-miterlimit:4;stroke-dasharray:none;stroke-opacity:1"
           d="m 459.24979,-1160.5562 c 0,-0.3179 -0.0651,-0.6351 -0.19712,-0.9199 -0.26414,-0.5696 -0.75306,-0.9208 -1.28537,-0.9206 l -12.96934,0 c -0.92648,-3.4228 -4.39718,-6.0669 -8.71696,-6.56 l 10e-4,16.8062 c 4.31931,-0.4934 7.78952,-3.1366 8.71596,-6.5591 l 12.96934,0 c 0.53231,3e-4 1.02123,-0.3511 1.28537,-0.9207 0.13206,-0.2848 0.19712,-0.6028 0.19712,-0.9207 z m -27.27231,-8.2094 c -1.45454,0.3107 -2.81597,0.878 -3.97981,1.6738 -0.42289,0.033 -0.84951,0.064 -1.27631,0.094 l 10e-4,12.8825 c 0.4244,0.03 0.84868,0.061 1.26928,0.093 1.16554,0.7965 2.52964,1.3638 3.98584,1.6747 l 0,-16.4187 z m -9.53365,2.0142 c -1.00318,0.041 -1.94063,0.065 -2.76283,0.065 -0.58041,0 -1.21884,-0.013 -1.89687,-0.034 l 10e-4,12.3275 c 0.67771,-0.022 1.31568,-0.033 1.89586,-0.033 0.82214,0 1.75968,0.023 2.76284,0.065 l 0,-12.3904 z m -8.84469,-0.1807 c -0.74305,-0.049 -1.49249,-0.1022 -2.23078,-0.1588 -1.84996,-1.2643 -4.19934,-1.9513 -6.62498,-1.9513 -4.98372,0 -9.15129,2.8411 -10.18035,6.6428 l -12.97336,0 c -0.52827,0 -1.01621,0.3511 -1.28034,0.9207 -0.26413,0.5696 -0.26413,1.2709 0,1.8405 0.26413,0.5696 0.75207,0.9211 1.28034,0.9207 l 12.97336,0 c 1.0291,3.8017 5.19666,6.642 10.18035,6.642 2.42385,0 4.77164,-0.6858 6.61994,-1.9495 0.73984,-0.057 1.49004,-0.1109 2.23481,-0.1597 l 10e-4,-12.7526 z"
           id="path10234"
           inkscape:connector-curvature="0" />
        <text
           sodipodi:linespacing="100%"
           id="text10236"
           y="-1060.1298"
           x="419.4631"
           style="font-style:normal;font-variant:normal;font-weight:bold;font-stretch:normal;font-size:15.43624973px;line-height:100%;font-family:'Alegreya Sans';-inkscape-font-specification:'Alegreya Sans, Bold';text-align:center;letter-spacing:0px;word-spacing:0px;writing-mode:lr-tb;text-anchor:middle;fill:#000000;fill-opacity:1;stroke:none;stroke-width:1px;stroke-linecap:butt;stroke-linejoin:miter;stroke-opacity:1"
           xml:space="preserve"><tspan
             id="tspan10238"
             y="-1060.1298"
             x="420.62384"
             sodipodi:role="line">Check twice, </tspan><tspan
             id="tspan10240"
             y="-1044.6935"
             x="420.62384"
             sodipodi:role="line">solder once </tspan></text>
        <text
           xml:space="preserve"
           style="font-style:normal;font-variant:normal;font-weight:500;font-stretch:normal;font-size:15.43646431px;line-height:100%;font-family:'Alegreya Sans';-inkscape-font-specification:'Alegreya Sans, Medium';text-align:center;letter-spacing:0px;word-spacing:0px;writing-mode:lr-tb;text-anchor:middle;fill:#000000;fill-opacity:1;stroke:none;stroke-width:1px;stroke-linecap:butt;stroke-linejoin:miter;stroke-opacity:1"
           x="419.68646"
           y="-1183.9237"
           id="text10242"
           sodipodi:linespacing="100%"><tspan
             sodipodi:role="line"
             x="419.68646"
             y="-1183.9237"
             id="tspan10244">Component side</tspan></text>
        <text
           sodipodi:linespacing="100%"
           id="text10246"
           y="-1123.0859"
           x="419.65558"
           style="font-style:normal;font-variant:normal;font-weight:500;font-stretch:normal;font-size:15.43646431px;line-height:100%;font-family:'Alegreya Sans';-inkscape-font-specification:'Alegreya Sans, Medium';text-align:center;letter-spacing:0px;word-spacing:0px;writing-mode:lr-tb;text-anchor:middle;fill:#000000;fill-opacity:1;stroke:none;stroke-width:1px;stroke-linecap:butt;stroke-linejoin:miter;stroke-opacity:1"
           xml:space="preserve"><tspan
             id="tspan10248"
             y="-1123.0859"
             x="419.65558"
             sodipodi:role="line">Solder side</tspan></text>
      </g>
    </g>
    <path
       sodipodi:nodetypes="cc"
       inkscape:connector-curvature="0"
       id="path10250"
       d="m 399.29339,-211.5533 0,151.83371"
       style="fill:none;fill-rule:evenodd;stroke:#4d4d4d;stroke-width:1.21635735;stroke-linecap:butt;stroke-linejoin:miter;stroke-miterlimit:4;stroke-dasharray:4.86542991, 4.86542990999999958;stroke-dashoffset:0;stroke-opacity:1"
       inkscape:export-xdpi="300.01074"
       inkscape:export-ydpi="300.01074" />
  </g>
</svg>
